<?xml version="1.0" standalone="no"?>
<!DOCTYPE svg PUBLIC "-//W3C//DTD SVG 1.1//EN" "http://www.w3.org/Graphics/SVG/1.1/DTD/svg11.dtd" >
<svg>
<metadata>
Created by FontForge 20090914 at Wed Nov  4 11:35:19 2020
 By www-data
&#194;&#169; 1991, 1992, 2003 Adobe Systems Incorporated. All Rights Reserved.
</metadata>
<defs>
<font id="HelveticaLTStd-Fractions" horiz-adv-x="333" >
  <font-face 
    font-family="Helvetica LT Std Fractions"
    font-weight="400"
    font-stretch="normal"
    units-per-em="1000"
    panose-1="0 0 5 0 0 0 0 0 0 0"
    ascent="709"
    descent="-291"
    bbox="-167 -123 1222 779.003"
    underline-thickness="50"
    underline-position="-150"
    unicode-range="U+0020-U+E055"
  />
<missing-glyph horiz-adv-x="500" 
d="M0 0v700h500v-700h-500zM250 395l170 255h-340zM280 350l170 -255v510zM80 50h340l-170 255zM50 605v-510l170 255z" />
    <glyph glyph-name=".notdef" horiz-adv-x="500" 
d="M0 0v700h500v-700h-500zM250 395l170 255h-340zM280 350l170 -255v510zM80 50h340l-170 255zM50 605v-510l170 255z" />
    <glyph glyph-name="space" unicode=" " horiz-adv-x="310" 
 />
    <glyph glyph-name="percent" unicode="%" horiz-adv-x="833" 
d="M10 493c0 75.333 13.167 130.166 39.5 164.499s65.166 51.5 116.499 51.5s90.166 -17.167 116.499 -51.5s39.5 -89.166 39.5 -164.499s-13.167 -130.166 -39.5 -164.499s-65.166 -51.5 -116.499 -51.5s-90.166 17.167 -116.499 51.5s-39.5 89.166 -39.5 164.499zM166 655
c-29.333 0 -51.333 -12.5 -66 -37.5s-22 -66.833 -22 -125.5c0 -58 7.33301 -99.333 22 -124s36.667 -37 66 -37s51.333 12.333 66 37s22 66 22 124c0 58.667 -7.33301 100.5 -22 125.5s-36.667 37.5 -66 37.5zM166 -12l441 721h60l-441 -721h-60zM510 209
c0 75.333 13.167 130.166 39.5 164.499s65.166 51.5 116.499 51.5s90.166 -17.167 116.499 -51.5s39.5 -89.166 39.5 -164.499s-13.167 -130.166 -39.5 -164.499s-65.166 -51.5 -116.499 -51.5s-90.166 17.167 -116.499 51.5s-39.5 89.166 -39.5 164.499zM666 371
c-29.333 0 -51.333 -12.5 -66 -37.5s-22 -66.833 -22 -125.5c0 -58 7.33301 -99.333 22 -124s36.667 -37 66 -37s51.333 12.333 66 37s22 66 22 124c0 58.667 -7.33301 100.5 -22 125.5s-36.667 37.5 -66 37.5z" />
    <glyph glyph-name="slash" unicode="/" horiz-adv-x="167" 
d="M-167 -12l441 721h60l-441 -721h-60z" />
    <glyph glyph-name="zero" unicode="0" horiz-adv-x="556" 
d="M42 348c0 38.667 1 71.667 3 99s7.5 58.833 16.5 94.5s21.5 64.667 37.5 87s39.167 41.333 69.5 57s66.833 23.5 109.5 23.5s79.167 -7.83301 109.5 -23.5s53.5 -34.667 69.5 -57s28.5 -51.333 37.5 -87s14.5 -67.167 16.5 -94.5s3 -60.333 3 -99
c0 -38 -1 -70.833 -3 -98.5s-7.5 -59.167 -16.5 -94.5s-21.5 -64.166 -37.5 -86.499s-39.167 -41.333 -69.5 -57s-66.833 -23.5 -109.5 -23.5s-79.167 7.83301 -109.5 23.5s-53.5 34.667 -69.5 57s-28.5 51.166 -37.5 86.499s-14.5 66.833 -16.5 94.5s-3 60.5 -3 98.5z
M132 349c0 -24.667 0.333008 -44.334 1 -59.001s2.16699 -35 4.5 -61s6.66602 -47.167 12.999 -63.5s14.666 -33.166 24.999 -50.499s24.166 -30.333 41.499 -39s37.666 -13 60.999 -13s43.666 4.33301 60.999 13s31.166 21.667 41.499 39s18.666 34.166 24.999 50.499
s10.666 37.5 12.999 63.5s3.83301 46.333 4.5 61s1 34.334 1 59.001c0 24 -0.333008 43.5 -1 58.5s-2.16699 35.333 -4.5 61s-6.66602 46.834 -12.999 63.501s-14.666 33.5 -24.999 50.5s-24.166 29.833 -41.499 38.5s-37.666 13 -60.999 13s-43.666 -4.33301 -60.999 -13
s-31.166 -21.5 -41.499 -38.5s-18.666 -33.833 -24.999 -50.5s-10.666 -37.834 -12.999 -63.501s-3.83301 -46 -4.5 -61s-1 -34.5 -1 -58.5z" />
    <glyph glyph-name="one" unicode="1" horiz-adv-x="556" 
d="M356 709v-709h-85v508h-184v68c120 0 188 44.333 204 133h65z" />
    <glyph glyph-name="two" unicode="2" horiz-adv-x="556" 
d="M129 458l-85 -0.000976562c-3.33301 73.333 15.5 133.5 56.5 180.5s98.167 70.5 171.5 70.5c64.667 0 117.834 -18 159.501 -54s62.5 -86 62.5 -150c0 -56 -15 -102 -45 -138s-72.333 -71 -127 -105c-5.33301 -3.33301 -17.666 -10.666 -36.999 -21.999
s-32.5 -19.333 -39.5 -24l-33 -22c-15 -10 -26 -18.667 -33 -26l-24.5 -26.5c-9.33301 -10.333 -16.333 -21 -21 -32s-8.33398 -22.5 -11.001 -34.5h364v-75h-463c3.33301 40 10.5 75.333 21.5 106s26.667 57.334 47 80.001s39.5 41 57.5 55s42.333 30.333 73 49
c68 42 115.167 77.167 141.5 105.5s39.5 65.166 39.5 110.499c0 38 -13.167 68.833 -39.5 92.5s-58.833 35.5 -97.5 35.5c-46 0 -80.833 -17.5 -104.5 -52.5s-34.834 -76.167 -33.501 -123.5z" />
    <glyph glyph-name="three" unicode="3" horiz-adv-x="556" 
d="M218 333l-0.00195312 71.998c8.66699 -0.666992 21 -1 37 -1c38 0 70 10.167 96 30.5s39 48.833 39 85.5c0 36 -11.667 64 -35 84s-53.666 30 -90.999 30c-44 0 -77.167 -14.5 -99.5 -43.5s-33.833 -65.833 -34.5 -110.5h-85c2.66699 70 22.667 125.667 60 167
s90.333 62 159 62c64.667 0 116.834 -16 156.501 -48s59.5 -79.333 59.5 -142c0 -30 -9.33301 -57.667 -28 -83s-42 -44.666 -70 -57.999v-2c42 -9.33301 73.833 -29.333 95.5 -60s32.5 -68 32.5 -112c0 -68 -23.167 -121 -69.5 -159s-104.5 -57 -174.5 -57
c-72.667 0 -130.5 20.5 -173.5 61.5s-63.833 97.5 -62.5 169.5h85c1.33301 -47.333 15 -85.166 41 -113.499s62.667 -42.5 110 -42.5c43.333 0 79.833 12.5 109.5 37.5s44.5 58.167 44.5 99.5c0 42.667 -14.167 76 -42.5 100s-64.5 36 -108.5 36c-18 0 -35 -1 -51 -3z" />
    <glyph glyph-name="four" unicode="4" horiz-adv-x="556" 
d="M419 709v-468h96v-75h-96v-166h-80v166h-311v82l323 461h68zM101 241h238v347h-2z" />
    <glyph glyph-name="five" unicode="5" horiz-adv-x="556" 
d="M470 697l-0.000976562 -75h-286l-38 -204l2 -2c30 34 74 51 132 51c66.667 0 121.5 -21 164.5 -63s64.5 -102 64.5 -180c0 -64.667 -21.833 -120.167 -65.5 -166.5s-104.5 -69.5 -182.5 -69.5c-63.333 0 -116.5 18.333 -159.5 55s-65.167 86 -66.5 148h85
c2.66699 -37.333 17.667 -68 45 -92s62 -36 104 -36c42.667 0 78.334 14.5 107.001 43.5s43 70.5 43 124.5c0 47.333 -14.833 86 -44.5 116s-68.167 45 -115.5 45c-51.333 0 -95.333 -22.333 -132 -67l-73 4l66 368h350z" />
    <glyph glyph-name="six" unicode="6" horiz-adv-x="556" 
d="M286 381c-46 0 -81.999 -15.167 -107.999 -45.5s-39 -68.5 -39 -114.5c0 -45.333 13.167 -83 39.5 -113s62.166 -45 107.499 -45c44 0 78.833 15.167 104.5 45.5s38.5 67.5 38.5 111.5c0 46.667 -12.167 85.167 -36.5 115.5s-59.833 45.5 -106.5 45.5zM499.001 528
l-85.001 -0.000976562c-4 32.667 -16.5 58.5 -37.5 77.5s-48.167 28.5 -81.5 28.5c-108 0 -165.333 -89.667 -172 -269l2 -2c38 62 97 93 177 93c66.667 0 119.5 -21.5 158.5 -64.5s58.5 -98.167 58.5 -165.5c0 -28 -4.16699 -55.167 -12.5 -81.5
s-21.166 -51.666 -38.499 -75.999s-42 -43.833 -74 -58.5s-69.333 -22 -112 -22c-162.667 0 -244 113.667 -244 341c0 52 4.33301 99.5 13 142.5s22.5 83 41.5 120s46 65.833 81 86.5s76.833 31 125.5 31c58.667 0 105.5 -15.833 140.5 -47.5s54.833 -76.167 59.5 -133.5z
" />
    <glyph glyph-name="seven" unicode="7" horiz-adv-x="556" 
d="M509 697v-72.999c-72 -71.333 -133.667 -165.666 -185 -282.999s-80.333 -231 -87 -341h-95c8 115.333 37 226.166 87 332.499s114.333 201.166 193 284.499h-372v80h459z" />
    <glyph glyph-name="eight" unicode="8" horiz-adv-x="556" 
d="M130 200c0 -42 14.001 -75.333 42.001 -100s64.333 -37 109 -37c42 0 76.667 13 104 39s41 59 41 99c0 38 -14.167 70 -42.5 96s-62.833 39 -103.5 39c-42.667 0 -78.334 -12.667 -107.001 -38s-43 -58 -43 -98zM65.001 528c0 56 20.332 100.168 60.999 132.501
s89.667 48.5 147 48.5c72 0 125.833 -17.667 161.5 -53s53.5 -78 53.5 -128c0 -31.333 -9 -60.333 -27 -87s-41.667 -46.667 -71 -60c84 -26.667 126 -85.667 126 -177c0 -66.667 -22.167 -119.334 -66.5 -158.001s-100.5 -58 -168.5 -58c-71.333 0 -129.333 18.5 -174 55.5
s-67 90.5 -67 160.5c0 42 10.833 78.5 32.5 109.5s52.167 53.5 91.5 67.5c-29.333 12 -53.166 31.5 -71.499 58.5s-27.5 56.5 -27.5 88.5zM155 525.001c0 -37.333 11.667 -65.666 35 -84.999s53.666 -29 90.999 -29c34.667 0 62.834 10.167 84.501 30.5
s32.5 48.166 32.5 83.499c0 34.667 -11 61.5 -33 80.5s-50.667 28.5 -86 28.5s-64.833 -9.66699 -88.5 -29s-35.5 -46 -35.5 -80z" />
    <glyph glyph-name="nine" unicode="9" horiz-adv-x="556" 
d="M409 472c0 46 -13 84.501 -39 115.501s-61.667 46.5 -107 46.5c-47.333 0 -82.333 -16 -105 -48s-34 -72 -34 -120c0 -40 13.333 -75 40 -105s60 -45 100 -45c43.333 0 78.333 15.167 105 45.5s40 67.166 40 110.499zM49 171.001h84.999
c2.66699 -33.333 16.167 -59.666 40.5 -78.999s54.166 -29 89.499 -29c102 0 155.333 91.333 160 274l-2 2c-16 -30 -38.667 -53.833 -68 -71.5s-61.333 -26.5 -96 -26.5c-70.667 0 -125.667 21.667 -165 65s-59 100.666 -59 171.999c0 68.667 21.667 124.334 65 167.001
s99.333 64 168 64c162 0 243 -113 243 -339c0 -254.667 -82 -382 -246 -382c-61.333 0 -111.166 15.667 -149.499 47s-60.166 76.666 -65.499 135.999z" />
    <glyph glyph-name="onequarter" unicode="&#xbc;" horiz-adv-x="833" 
d="M227 709v-425h-66v301h-112v45c77.333 0 121 26.333 131 79h47zM166 -12l441 721h60l-441 -721h-60zM764 425v-274h63v-54h-63v-97h-58v97h-201v52l214 276h45zM571 151h135v177h-2z" />
    <glyph glyph-name="onehalf" unicode="&#xbd;" horiz-adv-x="833" 
d="M227 709v-425h-66v301h-112v45c77.333 0 121 26.333 131 79h47zM166 -12l441 721h60l-441 -721h-60zM583 275l-61.999 -0.00195312c-2.66699 44 9.83301 80 37.5 108s66.5 42 116.5 42c44 0 78.833 -11.167 104.5 -33.5s38.5 -51.833 38.5 -88.5
c0 -31.333 -9 -58.166 -27 -80.499s-47.667 -45.5 -89 -69.5c-52.667 -30.667 -84.334 -51.334 -95.001 -62.001c-11.333 -11.333 -18.666 -23.666 -21.999 -36.999h228v-54h-305c3.33301 46 15.833 82.167 37.5 108.5s52.167 50.5 91.5 72.5c43.333 24 73 44 89 60
s24 36 24 60c0 21.333 -6.83301 38.333 -20.5 51s-33.5 19 -59.5 19c-30 0 -52.333 -9.16699 -67 -27.5s-21.334 -41.166 -20.001 -68.499z" />
    <glyph glyph-name="threequarters" unicode="&#xbe;" horiz-adv-x="833" 
d="M132 479v53c5.33301 -0.666992 13.333 -1 24 -1c25.333 0 45.166 6 59.499 18s21.5 27.333 21.5 46c0 40 -23.667 60 -71 60c-28.667 0 -50.167 -7.33301 -64.5 -22s-21.5 -35 -21.5 -61h-62c1.33301 42 14.5 75.333 39.5 100s60.833 37 107.5 37
c41.333 0 75 -9.5 101 -28.5s39 -46.167 39 -81.5c0 -41.333 -21.667 -70.666 -65 -87.999v-2c28 -5.33301 49.167 -17.166 63.5 -35.499s21.5 -40.833 21.5 -67.5c0 -40.667 -15.333 -72.334 -46 -95.001s-69 -34 -115 -34c-48 0 -86.167 12.333 -114.5 37
s-42.166 58.334 -41.499 101.001h62c4 -56 35.333 -84 94 -84c31.333 0 54.666 7.16699 69.999 21.5s23 32.166 23 53.499c0 23.333 -8.16699 41.666 -24.5 54.999s-38.5 20 -66.5 20c-9.33301 0 -20.666 -0.666992 -33.999 -2zM166 -12l441 721h60l-441 -721h-60zM764 425
v-274h63v-54h-63v-97h-58v97h-201v52l214 276h45zM571 151h135v177h-2z" />
    <glyph glyph-name="bullet" unicode="&#x2022;" 
d="M166 260c-16.667 0 -31.334 6.33301 -44.001 19s-19 27.334 -19 44.001s6.33301 31.334 19 44.001s27.334 19 44.001 19s31.334 -6.33301 44.001 -19s19 -27.334 19 -44.001s-6.33301 -31.334 -19 -44.001s-27.334 -19 -44.001 -19z" />
    <glyph glyph-name="perthousand" unicode="&#x2030;" horiz-adv-x="1233" 
d="M10 493c0 75.333 13.167 130.166 39.5 164.499s65.166 51.5 116.499 51.5s90.166 -17.167 116.499 -51.5s39.5 -89.166 39.5 -164.499s-13.167 -130.166 -39.5 -164.499s-65.166 -51.5 -116.499 -51.5s-90.166 17.167 -116.499 51.5s-39.5 89.166 -39.5 164.499zM166 655
c-29.333 0 -51.333 -12.5 -66 -37.5s-22 -66.833 -22 -125.5c0 -58 7.33301 -99.333 22 -124s36.667 -37 66 -37s51.333 12.333 66 37s22 66 22 124c0 58.667 -7.33301 100.5 -22 125.5s-36.667 37.5 -66 37.5zM166 -12l441 721h60l-441 -721h-60zM510 209
c0 75.333 13.167 130.166 39.5 164.499s65.166 51.5 116.499 51.5s90.166 -17.167 116.499 -51.5s39.5 -89.166 39.5 -164.499s-13.167 -130.166 -39.5 -164.499s-65.166 -51.5 -116.499 -51.5s-90.166 17.167 -116.499 51.5s-39.5 89.166 -39.5 164.499zM666 371
c-29.333 0 -51.333 -12.5 -66 -37.5s-22 -66.833 -22 -125.5c0 -58 7.33301 -99.333 22 -124s36.667 -37 66 -37s51.333 12.333 66 37s22 66 22 124c0 58.667 -7.33301 100.5 -22 125.5s-36.667 37.5 -66 37.5zM910 209c0 75.333 13.167 130.166 39.5 164.499
s65.166 51.5 116.499 51.5s90.166 -17.167 116.499 -51.5s39.5 -89.166 39.5 -164.499s-13.167 -130.166 -39.5 -164.499s-65.166 -51.5 -116.499 -51.5s-90.166 17.167 -116.499 51.5s-39.5 89.166 -39.5 164.499zM1066 371c-29.333 0 -51.333 -12.5 -66 -37.5
s-22 -66.833 -22 -125.5c0 -58 7.33301 -99.333 22 -124s36.667 -37 66 -37s51.333 12.333 66 37s22 66 22 124c0 58.667 -7.33301 100.5 -22 125.5s-36.667 37.5 -66 37.5z" />
    <glyph glyph-name="fraction" unicode="&#x2044;" horiz-adv-x="167" 
d="M-167 -12l441 721h60l-441 -721h-60z" />
    <glyph glyph-name="uni2153" unicode="&#x2153;" horiz-adv-x="833" 
d="M227 709v-425h-66v301h-112v45c77.333 0 121 26.333 131 79h47zM166 -12l441 721h60l-441 -721h-60zM632 195v53c5.33301 -0.666992 13.333 -1 24 -1c25.333 0 45.166 6 59.499 18s21.5 27.333 21.5 46c0 40 -23.667 60 -71 60c-28.667 0 -50.167 -7.33301 -64.5 -22
s-21.5 -35 -21.5 -61h-62c1.33301 42 14.5 75.333 39.5 100s60.833 37 107.5 37c41.333 0 75 -9.5 101 -28.5s39 -46.167 39 -81.5c0 -41.333 -21.667 -70.666 -65 -87.999v-2c28 -5.33301 49.167 -17.166 63.5 -35.499s21.5 -40.833 21.5 -67.5
c0 -40.667 -15.333 -72.334 -46 -95.001s-69 -34 -115 -34c-48 0 -86.167 12.333 -114.5 37s-42.166 58.334 -41.499 101.001h62c4 -56 35.333 -84 94 -84c31.333 0 54.666 7.16699 69.999 21.5s23 32.166 23 53.499c0 23.333 -8.16699 41.666 -24.5 54.999
s-38.5 20 -66.5 20c-9.33301 0 -20.666 -0.666992 -33.999 -2z" />
    <glyph glyph-name="uni2154" unicode="&#x2154;" horiz-adv-x="833" 
d="M83 559l-61.999 -0.00195312c-2.66699 44 9.83301 80 37.5 108s66.5 42 116.5 42c44 0 78.833 -11.167 104.5 -33.5s38.5 -51.833 38.5 -88.5c0 -31.333 -9 -58.166 -27 -80.499s-47.667 -45.5 -89 -69.5c-52.667 -30.667 -84.334 -51.334 -95.001 -62.001
c-11.333 -11.333 -18.666 -23.666 -21.999 -36.999h228v-54h-305c3.33301 46 15.833 82.167 37.5 108.5s52.167 50.5 91.5 72.5c43.333 24 73 44 89 60s24 36 24 60c0 21.333 -6.83301 38.333 -20.5 51s-33.5 19 -59.5 19c-30 0 -52.333 -9.16699 -67 -27.5
s-21.334 -41.166 -20.001 -68.499zM166.001 -12.002l441 721h60l-441 -721h-60zM632.001 194.998v53c5.33301 -0.666992 13.333 -1 24 -1c25.333 0 45.166 6 59.499 18s21.5 27.333 21.5 46c0 40 -23.667 60 -71 60c-28.667 0 -50.167 -7.33301 -64.5 -22
s-21.5 -35 -21.5 -61h-62c1.33301 42 14.5 75.333 39.5 100s60.833 37 107.5 37c41.333 0 75 -9.5 101 -28.5s39 -46.167 39 -81.5c0 -41.333 -21.667 -70.666 -65 -87.999v-2c28 -5.33301 49.167 -17.166 63.5 -35.499s21.5 -40.833 21.5 -67.5
c0 -40.667 -15.333 -72.334 -46 -95.001s-69 -34 -115 -34c-48 0 -86.167 12.333 -114.5 37s-42.166 58.334 -41.499 101.001h62c4 -56 35.333 -84 94 -84c31.333 0 54.666 7.16699 69.999 21.5s23 32.166 23 53.499c0 23.333 -8.16699 41.666 -24.5 54.999
s-38.5 20 -66.5 20c-9.33301 0 -20.666 -0.666992 -33.999 -2z" />
    <glyph glyph-name="uni2155" unicode="&#x2155;" horiz-adv-x="833" 
d="M227 709v-425h-66v301h-112v45c77.333 0 121 26.333 131 79h47zM166 -12l441 721h60l-441 -721h-60zM797 418l-0.00195312 -54.001h-188l-22 -106h2c18.667 16.667 46.334 25 83.001 25c46.667 0 83.5 -13 110.5 -39s40.5 -60.333 40.5 -103
c0 -44 -14.167 -79.667 -42.5 -107s-68.833 -41 -121.5 -41c-42 0 -77.167 11 -105.5 33s-42.833 51.667 -43.5 89h62c3.33301 -20.667 12.5 -37.167 27.5 -49.5s34.833 -18.5 59.5 -18.5c30.667 0 54.334 8.33301 71.001 25s25 39 25 67
c0 26.667 -8.33301 48.334 -25 65.001s-39.667 25 -69 25c-37.333 0 -67.333 -12.333 -90 -37l-48 2l43 224h231z" />
    <glyph glyph-name="uni2156" unicode="&#x2156;" horiz-adv-x="833" 
d="M83 559l-61.999 -0.00195312c-2.66699 44 9.83301 80 37.5 108s66.5 42 116.5 42c44 0 78.833 -11.167 104.5 -33.5s38.5 -51.833 38.5 -88.5c0 -31.333 -9 -58.166 -27 -80.499s-47.667 -45.5 -89 -69.5c-52.667 -30.667 -84.334 -51.334 -95.001 -62.001
c-11.333 -11.333 -18.666 -23.666 -21.999 -36.999h228v-54h-305c3.33301 46 15.833 82.167 37.5 108.5s52.167 50.5 91.5 72.5c43.333 24 73 44 89 60s24 36 24 60c0 21.333 -6.83301 38.333 -20.5 51s-33.5 19 -59.5 19c-30 0 -52.333 -9.16699 -67 -27.5
s-21.334 -41.166 -20.001 -68.499zM166.001 -12.002l441 721h60l-441 -721h-60zM797.001 417.998l-0.00195312 -54.001h-188l-22 -106h2c18.667 16.667 46.334 25 83.001 25c46.667 0 83.5 -13 110.5 -39s40.5 -60.333 40.5 -103c0 -44 -14.167 -79.667 -42.5 -107
s-68.833 -41 -121.5 -41c-42 0 -77.167 11 -105.5 33s-42.833 51.667 -43.5 89h62c3.33301 -20.667 12.5 -37.167 27.5 -49.5s34.833 -18.5 59.5 -18.5c30.667 0 54.334 8.33301 71.001 25s25 39 25 67c0 26.667 -8.33301 48.334 -25 65.001s-39.667 25 -69 25
c-37.333 0 -67.333 -12.333 -90 -37l-48 2l43 224h231z" />
    <glyph glyph-name="uni2157" unicode="&#x2157;" horiz-adv-x="833" 
d="M132 479v53c5.33301 -0.666992 13.333 -1 24 -1c25.333 0 45.166 6 59.499 18s21.5 27.333 21.5 46c0 40 -23.667 60 -71 60c-28.667 0 -50.167 -7.33301 -64.5 -22s-21.5 -35 -21.5 -61h-62c1.33301 42 14.5 75.333 39.5 100s60.833 37 107.5 37
c41.333 0 75 -9.5 101 -28.5s39 -46.167 39 -81.5c0 -41.333 -21.667 -70.666 -65 -87.999v-2c28 -5.33301 49.167 -17.166 63.5 -35.499s21.5 -40.833 21.5 -67.5c0 -40.667 -15.333 -72.334 -46 -95.001s-69 -34 -115 -34c-48 0 -86.167 12.333 -114.5 37
s-42.166 58.334 -41.499 101.001h62c4 -56 35.333 -84 94 -84c31.333 0 54.666 7.16699 69.999 21.5s23 32.166 23 53.499c0 23.333 -8.16699 41.666 -24.5 54.999s-38.5 20 -66.5 20c-9.33301 0 -20.666 -0.666992 -33.999 -2zM166 -12l441 721h60l-441 -721h-60zM797 418
l-0.00195312 -54.001h-188l-22 -106h2c18.667 16.667 46.334 25 83.001 25c46.667 0 83.5 -13 110.5 -39s40.5 -60.333 40.5 -103c0 -44 -14.167 -79.667 -42.5 -107s-68.833 -41 -121.5 -41c-42 0 -77.167 11 -105.5 33s-42.833 51.667 -43.5 89h62
c3.33301 -20.667 12.5 -37.167 27.5 -49.5s34.833 -18.5 59.5 -18.5c30.667 0 54.334 8.33301 71.001 25s25 39 25 67c0 26.667 -8.33301 48.334 -25 65.001s-39.667 25 -69 25c-37.333 0 -67.333 -12.333 -90 -37l-48 2l43 224h231z" />
    <glyph glyph-name="uni2158" unicode="&#x2158;" horiz-adv-x="833" 
d="M264 709v-274h63v-54h-63v-97h-58v97h-201v52l214 276h45zM71 435h135v177h-2zM166 -12l441 721h60l-441 -721h-60zM797 418l-0.00195312 -54.001h-188l-22 -106h2c18.667 16.667 46.334 25 83.001 25c46.667 0 83.5 -13 110.5 -39s40.5 -60.333 40.5 -103
c0 -44 -14.167 -79.667 -42.5 -107s-68.833 -41 -121.5 -41c-42 0 -77.167 11 -105.5 33s-42.833 51.667 -43.5 89h62c3.33301 -20.667 12.5 -37.167 27.5 -49.5s34.833 -18.5 59.5 -18.5c30.667 0 54.334 8.33301 71.001 25s25 39 25 67
c0 26.667 -8.33301 48.334 -25 65.001s-39.667 25 -69 25c-37.333 0 -67.333 -12.333 -90 -37l-48 2l43 224h231z" />
    <glyph glyph-name="uni2159" unicode="&#x2159;" horiz-adv-x="833" 
d="M227 709v-425h-66v301h-112v45c77.333 0 121 26.333 131 79h47zM166 -12l441 721h60l-441 -721h-60zM582 133c0 -25.333 7.66699 -46.001 23 -62.001s37.333 -24 66 -24c27.333 0 48.5 8.16699 63.5 24.5s22.5 36.5 22.5 60.5c0 26 -7.16699 47.167 -21.5 63.5
s-35.833 24.5 -64.5 24.5s-50.667 -8.16699 -66 -24.5s-23 -37.166 -23 -62.499zM811 316.999l-61.999 -0.000976562c-2.66699 16.667 -10.334 29.834 -23.001 39.501s-29 14.5 -49 14.5c-27.333 0 -49.5 -8.5 -66.5 -25.5s-28 -35 -33 -54s-7.83301 -39.5 -8.5 -61.5l2 -1
c26 30 62.667 45 110 45c44 0 79 -13 105 -39s39 -59 39 -99c0 -37.333 -12.667 -70.5 -38 -99.5s-65 -43.5 -119 -43.5c-107.333 0 -161 68 -161 204c0 66.667 13.333 121.334 40 164.001s70.667 64 132 64c39.333 0 70.5 -9.33301 93.5 -28s35.833 -45.334 38.5 -80.001z
" />
    <glyph glyph-name="uni215A" unicode="&#x215a;" horiz-adv-x="833" 
d="M297 702l-0.00195312 -54.001h-188l-22 -106h2c18.667 16.667 46.334 25 83.001 25c46.667 0 83.5 -13 110.5 -39s40.5 -60.333 40.5 -103c0 -44 -14.167 -79.667 -42.5 -107s-68.833 -41 -121.5 -41c-42 0 -77.167 11 -105.5 33s-42.833 51.667 -43.5 89h62
c3.33301 -20.667 12.5 -37.167 27.5 -49.5s34.833 -18.5 59.5 -18.5c30.667 0 54.334 8.33301 71.001 25s25 39 25 67c0 26.667 -8.33301 48.334 -25 65.001s-39.667 25 -69 25c-37.333 0 -67.333 -12.333 -90 -37l-48 2l43 224h231zM165.998 -12.001l441 721h60l-441 -721
h-60zM581.998 132.999c0 -25.333 7.66699 -46.001 23 -62.001s37.333 -24 66 -24c27.333 0 48.5 8.16699 63.5 24.5s22.5 36.5 22.5 60.5c0 26 -7.16699 47.167 -21.5 63.5s-35.833 24.5 -64.5 24.5s-50.667 -8.16699 -66 -24.5s-23 -37.166 -23 -62.499zM810.998 316.998
l-61.999 -0.000976562c-2.66699 16.667 -10.334 29.834 -23.001 39.501s-29 14.5 -49 14.5c-27.333 0 -49.5 -8.5 -66.5 -25.5s-28 -35 -33 -54s-7.83301 -39.5 -8.5 -61.5l2 -1c26 30 62.667 45 110 45c44 0 79 -13 105 -39s39 -59 39 -99
c0 -37.333 -12.667 -70.5 -38 -99.5s-65 -43.5 -119 -43.5c-107.333 0 -161 68 -161 204c0 66.667 13.333 121.334 40 164.001s70.667 64 132 64c39.333 0 70.5 -9.33301 93.5 -28s35.833 -45.334 38.5 -80.001z" />
    <glyph glyph-name="uni215B" unicode="&#x215b;" horiz-adv-x="833" 
d="M227 709v-425h-66v301h-112v45c77.333 0 121 26.333 131 79h47zM166 -12l441 721h60l-441 -721h-60zM757 122c0 23.333 -8.16699 41.833 -24.5 55.5s-38.166 20.5 -65.499 20.5s-49.333 -7 -66 -21s-25 -32.333 -25 -55s8.33301 -40.834 25 -54.501
s38.667 -20.5 66 -20.5s49.166 6.83301 65.499 20.5s24.5 31.834 24.5 54.501zM741 230l-0.000976562 -2c56 -16 84 -51.333 84 -106c0 -40 -14.833 -71.5 -44.5 -94.5s-67.5 -34.5 -113.5 -34.5s-84 11.5 -114 34.5s-45 54.5 -45 94.5c0 54.667 28.333 90 85 106v2
c-19.333 7.33301 -35.166 19 -47.499 35s-18.5 33.333 -18.5 52c0 30 11.833 55.5 35.5 76.5s58.5 31.5 104.5 31.5s80.667 -10.5 104 -31.5s35 -46.5 35 -76.5c0 -19.333 -6 -37 -18 -53s-27.667 -27.333 -47 -34zM666.999 371c-48 0 -72 -20 -72 -60
c0 -39.333 24 -59 72 -59c47.333 0 71 19.667 71 59c0 40 -23.667 60 -71 60z" />
    <glyph glyph-name="uni215C" unicode="&#x215c;" horiz-adv-x="833" 
d="M132 479v53c5.33301 -0.666992 13.333 -1 24 -1c25.333 0 45.166 6 59.499 18s21.5 27.333 21.5 46c0 40 -23.667 60 -71 60c-28.667 0 -50.167 -7.33301 -64.5 -22s-21.5 -35 -21.5 -61h-62c1.33301 42 14.5 75.333 39.5 100s60.833 37 107.5 37
c41.333 0 75 -9.5 101 -28.5s39 -46.167 39 -81.5c0 -41.333 -21.667 -70.666 -65 -87.999v-2c28 -5.33301 49.167 -17.166 63.5 -35.499s21.5 -40.833 21.5 -67.5c0 -40.667 -15.333 -72.334 -46 -95.001s-69 -34 -115 -34c-48 0 -86.167 12.333 -114.5 37
s-42.166 58.334 -41.499 101.001h62c4 -56 35.333 -84 94 -84c31.333 0 54.666 7.16699 69.999 21.5s23 32.166 23 53.499c0 23.333 -8.16699 41.666 -24.5 54.999s-38.5 20 -66.5 20c-9.33301 0 -20.666 -0.666992 -33.999 -2zM166 -12l441 721h60l-441 -721h-60zM757 122
c0 23.333 -8.16699 41.833 -24.5 55.5s-38.166 20.5 -65.499 20.5s-49.333 -7 -66 -21s-25 -32.333 -25 -55s8.33301 -40.834 25 -54.501s38.667 -20.5 66 -20.5s49.166 6.83301 65.499 20.5s24.5 31.834 24.5 54.501zM741 230l-0.000976562 -2c56 -16 84 -51.333 84 -106
c0 -40 -14.833 -71.5 -44.5 -94.5s-67.5 -34.5 -113.5 -34.5s-84 11.5 -114 34.5s-45 54.5 -45 94.5c0 54.667 28.333 90 85 106v2c-19.333 7.33301 -35.166 19 -47.499 35s-18.5 33.333 -18.5 52c0 30 11.833 55.5 35.5 76.5s58.5 31.5 104.5 31.5s80.667 -10.5 104 -31.5
s35 -46.5 35 -76.5c0 -19.333 -6 -37 -18 -53s-27.667 -27.333 -47 -34zM666.999 371c-48 0 -72 -20 -72 -60c0 -39.333 24 -59 72 -59c47.333 0 71 19.667 71 59c0 40 -23.667 60 -71 60z" />
    <glyph glyph-name="uni215D" unicode="&#x215d;" horiz-adv-x="833" 
d="M297 702l-0.00195312 -54.001h-188l-22 -106h2c18.667 16.667 46.334 25 83.001 25c46.667 0 83.5 -13 110.5 -39s40.5 -60.333 40.5 -103c0 -44 -14.167 -79.667 -42.5 -107s-68.833 -41 -121.5 -41c-42 0 -77.167 11 -105.5 33s-42.833 51.667 -43.5 89h62
c3.33301 -20.667 12.5 -37.167 27.5 -49.5s34.833 -18.5 59.5 -18.5c30.667 0 54.334 8.33301 71.001 25s25 39 25 67c0 26.667 -8.33301 48.334 -25 65.001s-39.667 25 -69 25c-37.333 0 -67.333 -12.333 -90 -37l-48 2l43 224h231zM165.998 -12.001l441 721h60l-441 -721
h-60zM756.998 121.999c0 23.333 -8.16699 41.833 -24.5 55.5s-38.166 20.5 -65.499 20.5s-49.333 -7 -66 -21s-25 -32.333 -25 -55s8.33301 -40.834 25 -54.501s38.667 -20.5 66 -20.5s49.166 6.83301 65.499 20.5s24.5 31.834 24.5 54.501zM740.998 229.999
l-0.000976562 -2c56 -16 84 -51.333 84 -106c0 -40 -14.833 -71.5 -44.5 -94.5s-67.5 -34.5 -113.5 -34.5s-84 11.5 -114 34.5s-45 54.5 -45 94.5c0 54.667 28.333 90 85 106v2c-19.333 7.33301 -35.166 19 -47.499 35s-18.5 33.333 -18.5 52c0 30 11.833 55.5 35.5 76.5
s58.5 31.5 104.5 31.5s80.667 -10.5 104 -31.5s35 -46.5 35 -76.5c0 -19.333 -6 -37 -18 -53s-27.667 -27.333 -47 -34zM666.997 370.999c-48 0 -72 -20 -72 -60c0 -39.333 24 -59 72 -59c47.333 0 71 19.667 71 59c0 40 -23.667 60 -71 60z" />
    <glyph glyph-name="uni215E" unicode="&#x215e;" horiz-adv-x="833" 
d="M321 702v-44c-47.333 -42.667 -87.666 -99.167 -120.999 -169.5s-52.333 -138.5 -57 -204.5h-72c4.66699 68.667 23.167 134.5 55.5 197.5s72.166 117.167 119.499 162.5h-228v58h303zM166 -12l441 721h60l-441 -721h-60zM757 122c0 23.333 -8.16699 41.833 -24.5 55.5
s-38.166 20.5 -65.499 20.5s-49.333 -7 -66 -21s-25 -32.333 -25 -55s8.33301 -40.834 25 -54.501s38.667 -20.5 66 -20.5s49.166 6.83301 65.499 20.5s24.5 31.834 24.5 54.501zM741 230l-0.000976562 -2c56 -16 84 -51.333 84 -106c0 -40 -14.833 -71.5 -44.5 -94.5
s-67.5 -34.5 -113.5 -34.5s-84 11.5 -114 34.5s-45 54.5 -45 94.5c0 54.667 28.333 90 85 106v2c-19.333 7.33301 -35.166 19 -47.499 35s-18.5 33.333 -18.5 52c0 30 11.833 55.5 35.5 76.5s58.5 31.5 104.5 31.5s80.667 -10.5 104 -31.5s35 -46.5 35 -76.5
c0 -19.333 -6 -37 -18 -53s-27.667 -27.333 -47 -34zM666.999 371c-48 0 -72 -20 -72 -60c0 -39.333 24 -59 72 -59c47.333 0 71 19.667 71 59c0 40 -23.667 60 -71 60z" />
    <glyph glyph-name="uni2215" unicode="&#x2215;" horiz-adv-x="167" 
d="M-167 -12l441 721h60l-441 -721h-60z" />
    <glyph glyph-name="zero.numerator" unicode="&#xe000;" 
d="M10 493c0 75.333 13.167 130.166 39.5 164.499s65.166 51.5 116.499 51.5s90.166 -17.167 116.499 -51.5s39.5 -89.166 39.5 -164.499s-13.167 -130.166 -39.5 -164.499s-65.166 -51.5 -116.499 -51.5s-90.166 17.167 -116.499 51.5s-39.5 89.166 -39.5 164.499zM166 655
c-29.333 0 -51.333 -12.5 -66 -37.5s-22 -66.833 -22 -125.5c0 -58 7.33301 -99.333 22 -124s36.667 -37 66 -37s51.333 12.333 66 37s22 66 22 124c0 58.667 -7.33301 100.5 -22 125.5s-36.667 37.5 -66 37.5z" />
    <glyph glyph-name="one.numerator" unicode="&#xe001;" 
d="M227 709v-425h-66v301h-112v45c77.333 0 121 26.333 131 79h47z" />
    <glyph glyph-name="two.numerator" unicode="&#xe002;" 
d="M83 559l-61.999 -0.00195312c-2.66699 44 9.83301 80 37.5 108s66.5 42 116.5 42c44 0 78.833 -11.167 104.5 -33.5s38.5 -51.833 38.5 -88.5c0 -31.333 -9 -58.166 -27 -80.499s-47.667 -45.5 -89 -69.5c-52.667 -30.667 -84.334 -51.334 -95.001 -62.001
c-11.333 -11.333 -18.666 -23.666 -21.999 -36.999h228v-54h-305c3.33301 46 15.833 82.167 37.5 108.5s52.167 50.5 91.5 72.5c43.333 24 73 44 89 60s24 36 24 60c0 21.333 -6.83301 38.333 -20.5 51s-33.5 19 -59.5 19c-30 0 -52.333 -9.16699 -67 -27.5
s-21.334 -41.166 -20.001 -68.499z" />
    <glyph glyph-name="three.numerator" unicode="&#xe003;" 
d="M132 479v53c5.33301 -0.666992 13.333 -1 24 -1c25.333 0 45.166 6 59.499 18s21.5 27.333 21.5 46c0 40 -23.667 60 -71 60c-28.667 0 -50.167 -7.33301 -64.5 -22s-21.5 -35 -21.5 -61h-62c1.33301 42 14.5 75.333 39.5 100s60.833 37 107.5 37
c41.333 0 75 -9.5 101 -28.5s39 -46.167 39 -81.5c0 -41.333 -21.667 -70.666 -65 -87.999v-2c28 -5.33301 49.167 -17.166 63.5 -35.499s21.5 -40.833 21.5 -67.5c0 -40.667 -15.333 -72.334 -46 -95.001s-69 -34 -115 -34c-48 0 -86.167 12.333 -114.5 37
s-42.166 58.334 -41.499 101.001h62c4 -56 35.333 -84 94 -84c31.333 0 54.666 7.16699 69.999 21.5s23 32.166 23 53.499c0 23.333 -8.16699 41.666 -24.5 54.999s-38.5 20 -66.5 20c-9.33301 0 -20.666 -0.666992 -33.999 -2z" />
    <glyph glyph-name="four.numerator" unicode="&#xe004;" 
d="M264 709v-274h63v-54h-63v-97h-58v97h-201v52l214 276h45zM71 435h135v177h-2z" />
    <glyph glyph-name="five.numerator" unicode="&#xe005;" 
d="M297 702l-0.00195312 -54.001h-188l-22 -106h2c18.667 16.667 46.334 25 83.001 25c46.667 0 83.5 -13 110.5 -39s40.5 -60.333 40.5 -103c0 -44 -14.167 -79.667 -42.5 -107s-68.833 -41 -121.5 -41c-42 0 -77.167 11 -105.5 33s-42.833 51.667 -43.5 89h62
c3.33301 -20.667 12.5 -37.167 27.5 -49.5s34.833 -18.5 59.5 -18.5c30.667 0 54.334 8.33301 71.001 25s25 39 25 67c0 26.667 -8.33301 48.334 -25 65.001s-39.667 25 -69 25c-37.333 0 -67.333 -12.333 -90 -37l-48 2l43 224h231z" />
    <glyph glyph-name="six.numerator" unicode="&#xe006;" 
d="M82 417c0 -25.333 7.66699 -46.001 23 -62.001s37.333 -24 66 -24c27.333 0 48.5 8.16699 63.5 24.5s22.5 36.5 22.5 60.5c0 26 -7.16699 47.167 -21.5 63.5s-35.833 24.5 -64.5 24.5s-50.667 -8.16699 -66 -24.5s-23 -37.166 -23 -62.499zM311 600.999
l-61.999 -0.000976562c-2.66699 16.667 -10.334 29.834 -23.001 39.501s-29 14.5 -49 14.5c-27.333 0 -49.5 -8.5 -66.5 -25.5s-28 -35 -33 -54s-7.83301 -39.5 -8.5 -61.5l2 -1c26 30 62.667 45 110 45c44 0 79 -13 105 -39s39 -59 39 -99
c0 -37.333 -12.667 -70.5 -38 -99.5s-65 -43.5 -119 -43.5c-107.333 0 -161 68 -161 204c0 66.667 13.333 121.334 40 164.001s70.667 64 132 64c39.333 0 70.5 -9.33301 93.5 -28s35.833 -45.334 38.5 -80.001z" />
    <glyph glyph-name="seven.numerator" unicode="&#xe007;" 
d="M321 702v-44c-47.333 -42.667 -87.666 -99.167 -120.999 -169.5s-52.333 -138.5 -57 -204.5h-72c4.66699 68.667 23.167 134.5 55.5 197.5s72.166 117.167 119.499 162.5h-228v58h303z" />
    <glyph glyph-name="eight.numerator" unicode="&#xe008;" 
d="M257 406c0 23.333 -8.16699 41.833 -24.5 55.5s-38.166 20.5 -65.499 20.5s-49.333 -7 -66 -21s-25 -32.333 -25 -55s8.33301 -40.834 25 -54.501s38.667 -20.5 66 -20.5s49.166 6.83301 65.499 20.5s24.5 31.834 24.5 54.501zM241 514l-0.000976562 -2
c56 -16 84 -51.333 84 -106c0 -40 -14.833 -71.5 -44.5 -94.5s-67.5 -34.5 -113.5 -34.5s-84 11.5 -114 34.5s-45 54.5 -45 94.5c0 54.667 28.333 90 85 106v2c-19.333 7.33301 -35.166 19 -47.499 35s-18.5 33.333 -18.5 52c0 30 11.833 55.5 35.5 76.5
s58.5 31.5 104.5 31.5s80.667 -10.5 104 -31.5s35 -46.5 35 -76.5c0 -19.333 -6 -37 -18 -53s-27.667 -27.333 -47 -34zM166.999 655c-48 0 -72 -20 -72 -60c0 -39.333 24 -59 72 -59c47.333 0 71 19.667 71 59c0 40 -23.667 60 -71 60z" />
    <glyph glyph-name="nine.numerator" unicode="&#xe009;" 
d="M251 569c0 25.333 -7.66699 46.001 -23 62.001s-37.333 24 -66 24c-27.333 0 -48.5 -8.16699 -63.5 -24.5s-22.5 -36.5 -22.5 -60.5c0 -26 7.16699 -47.167 21.5 -63.5s35.833 -24.5 64.5 -24.5s50.667 8.16699 66 24.5s23 37.166 23 62.499zM22 385.001
l61.999 0.000976562c2.66699 -16.667 10.334 -29.834 23.001 -39.501s29 -14.5 49 -14.5c27.333 0 49.5 8.5 66.5 25.5s28 35 33 54s7.83301 39.5 8.5 61.5l-2 1c-26 -30 -62.667 -45 -110 -45c-44 0 -79 13 -105 39s-39 59 -39 99c0 37.333 12.667 70.5 38 99.5
s65 43.5 119 43.5c107.333 0 161 -68 161 -204c0 -66.667 -13.333 -121.334 -40 -164.001s-70.667 -64 -132 -64c-39.333 0 -70.5 9.33301 -93.5 28s-35.833 45.334 -38.5 80.001z" />
    <glyph glyph-name="zero.denominator" unicode="&#xe00a;" 
d="M10 209c0 75.333 13.167 130.166 39.5 164.499s65.166 51.5 116.499 51.5s90.166 -17.167 116.499 -51.5s39.5 -89.166 39.5 -164.499s-13.167 -130.166 -39.5 -164.499s-65.166 -51.5 -116.499 -51.5s-90.166 17.167 -116.499 51.5s-39.5 89.166 -39.5 164.499zM166 371
c-29.333 0 -51.333 -12.5 -66 -37.5s-22 -66.833 -22 -125.5c0 -58 7.33301 -99.333 22 -124s36.667 -37 66 -37s51.333 12.333 66 37s22 66 22 124c0 58.667 -7.33301 100.5 -22 125.5s-36.667 37.5 -66 37.5z" />
    <glyph glyph-name="one.denominator" unicode="&#xe00b;" 
d="M227 425v-425h-66v301h-112v45c77.333 0 121 26.333 131 79h47z" />
    <glyph glyph-name="two.denominator" unicode="&#xe00c;" 
d="M83 275l-61.999 -0.00195312c-2.66699 44 9.83301 80 37.5 108s66.5 42 116.5 42c44 0 78.833 -11.167 104.5 -33.5s38.5 -51.833 38.5 -88.5c0 -31.333 -9 -58.166 -27 -80.499s-47.667 -45.5 -89 -69.5c-52.667 -30.667 -84.334 -51.334 -95.001 -62.001
c-11.333 -11.333 -18.666 -23.666 -21.999 -36.999h228v-54h-305c3.33301 46 15.833 82.167 37.5 108.5s52.167 50.5 91.5 72.5c43.333 24 73 44 89 60s24 36 24 60c0 21.333 -6.83301 38.333 -20.5 51s-33.5 19 -59.5 19c-30 0 -52.333 -9.16699 -67 -27.5
s-21.334 -41.166 -20.001 -68.499z" />
    <glyph glyph-name="three.denominator" unicode="&#xe00d;" 
d="M132 195v53c5.33301 -0.666992 13.333 -1 24 -1c25.333 0 45.166 6 59.499 18s21.5 27.333 21.5 46c0 40 -23.667 60 -71 60c-28.667 0 -50.167 -7.33301 -64.5 -22s-21.5 -35 -21.5 -61h-62c1.33301 42 14.5 75.333 39.5 100s60.833 37 107.5 37
c41.333 0 75 -9.5 101 -28.5s39 -46.167 39 -81.5c0 -41.333 -21.667 -70.666 -65 -87.999v-2c28 -5.33301 49.167 -17.166 63.5 -35.499s21.5 -40.833 21.5 -67.5c0 -40.667 -15.333 -72.334 -46 -95.001s-69 -34 -115 -34c-48 0 -86.167 12.333 -114.5 37
s-42.166 58.334 -41.499 101.001h62c4 -56 35.333 -84 94 -84c31.333 0 54.666 7.16699 69.999 21.5s23 32.166 23 53.499c0 23.333 -8.16699 41.666 -24.5 54.999s-38.5 20 -66.5 20c-9.33301 0 -20.666 -0.666992 -33.999 -2z" />
    <glyph glyph-name="four.denominator" unicode="&#xe00e;" 
d="M264 425v-274h63v-54h-63v-97h-58v97h-201v52l214 276h45zM71 151h135v177h-2z" />
    <glyph glyph-name="five.denominator" unicode="&#xe00f;" 
d="M297 418l-0.00195312 -54.001h-188l-22 -106h2c18.667 16.667 46.334 25 83.001 25c46.667 0 83.5 -13 110.5 -39s40.5 -60.333 40.5 -103c0 -44 -14.167 -79.667 -42.5 -107s-68.833 -41 -121.5 -41c-42 0 -77.167 11 -105.5 33s-42.833 51.667 -43.5 89h62
c3.33301 -20.667 12.5 -37.167 27.5 -49.5s34.833 -18.5 59.5 -18.5c30.667 0 54.334 8.33301 71.001 25s25 39 25 67c0 26.667 -8.33301 48.334 -25 65.001s-39.667 25 -69 25c-37.333 0 -67.333 -12.333 -90 -37l-48 2l43 224h231z" />
    <glyph glyph-name="six.denominator" unicode="&#xe010;" 
d="M82 133c0 -25.333 7.66699 -46.001 23 -62.001s37.333 -24 66 -24c27.333 0 48.5 8.16699 63.5 24.5s22.5 36.5 22.5 60.5c0 26 -7.16699 47.167 -21.5 63.5s-35.833 24.5 -64.5 24.5s-50.667 -8.16699 -66 -24.5s-23 -37.166 -23 -62.499zM311 316.999
l-61.999 -0.000976562c-2.66699 16.667 -10.334 29.834 -23.001 39.501s-29 14.5 -49 14.5c-27.333 0 -49.5 -8.5 -66.5 -25.5s-28 -35 -33 -54s-7.83301 -39.5 -8.5 -61.5l2 -1c26 30 62.667 45 110 45c44 0 79 -13 105 -39s39 -59 39 -99
c0 -37.333 -12.667 -70.5 -38 -99.5s-65 -43.5 -119 -43.5c-107.333 0 -161 68 -161 204c0 66.667 13.333 121.334 40 164.001s70.667 64 132 64c39.333 0 70.5 -9.33301 93.5 -28s35.833 -45.334 38.5 -80.001z" />
    <glyph glyph-name="seven.denominator" unicode="&#xe011;" 
d="M321 418v-44c-47.333 -42.667 -87.666 -99.167 -120.999 -169.5s-52.333 -138.5 -57 -204.5h-72c4.66699 68.667 23.167 134.5 55.5 197.5s72.166 117.167 119.499 162.5h-228v58h303z" />
    <glyph glyph-name="eight.denominator" unicode="&#xe012;" 
d="M257 122c0 23.333 -8.16699 41.833 -24.5 55.5s-38.166 20.5 -65.499 20.5s-49.333 -7 -66 -21s-25 -32.333 -25 -55s8.33301 -40.834 25 -54.501s38.667 -20.5 66 -20.5s49.166 6.83301 65.499 20.5s24.5 31.834 24.5 54.501zM241 230l-0.000976562 -2
c56 -16 84 -51.333 84 -106c0 -40 -14.833 -71.5 -44.5 -94.5s-67.5 -34.5 -113.5 -34.5s-84 11.5 -114 34.5s-45 54.5 -45 94.5c0 54.667 28.333 90 85 106v2c-19.333 7.33301 -35.166 19 -47.499 35s-18.5 33.333 -18.5 52c0 30 11.833 55.5 35.5 76.5
s58.5 31.5 104.5 31.5s80.667 -10.5 104 -31.5s35 -46.5 35 -76.5c0 -19.333 -6 -37 -18 -53s-27.667 -27.333 -47 -34zM166.999 371c-48 0 -72 -20 -72 -60c0 -39.333 24 -59 72 -59c47.333 0 71 19.667 71 59c0 40 -23.667 60 -71 60z" />
    <glyph glyph-name="nine.denominator" unicode="&#xe013;" 
d="M251 285c0 25.333 -7.66699 46.001 -23 62.001s-37.333 24 -66 24c-27.333 0 -48.5 -8.16699 -63.5 -24.5s-22.5 -36.5 -22.5 -60.5c0 -26 7.16699 -47.167 21.5 -63.5s35.833 -24.5 64.5 -24.5s50.667 8.16699 66 24.5s23 37.166 23 62.499zM22 101.001
l61.999 0.000976562c2.66699 -16.667 10.334 -29.834 23.001 -39.501s29 -14.5 49 -14.5c27.333 0 49.5 8.5 66.5 25.5s28 35 33 54s7.83301 39.5 8.5 61.5l-2 1c-26 -30 -62.667 -45 -110 -45c-44 0 -79 13 -105 39s-39 59 -39 99c0 37.333 12.667 70.5 38 99.5
s65 43.5 119 43.5c107.333 0 161 -68 161 -204c0 -66.667 -13.333 -121.334 -40 -164.001s-70.667 -64 -132 -64c-39.333 0 -70.5 9.33301 -93.5 28s-35.833 45.334 -38.5 80.001z" />
    <glyph glyph-name="zero.numeratorkerned" unicode="&#xe014;" horiz-adv-x="1" 
d="M31 592c0 64 11 111.167 33 141.5s56 45.5 102 45.5s80 -15.167 102 -45.5s33 -77.833 33 -142.5c0 -64 -11 -111.167 -33 -141.5s-56 -45.5 -102 -45.5s-80 15.167 -102 45.5s-33 77.833 -33 142.5zM93 592c0 -94.667 24.333 -142 73 -142s73 47 73 141
c0 94.667 -24.333 142 -73 142s-73 -47 -73 -141zM159 352v-48h-317v48h317z" />
    <glyph glyph-name="one.numeratorkerned" unicode="&#xe015;" horiz-adv-x="1" 
d="M213 779l0.000976562 -369h-56v263h-97v36c65.333 0 102.666 23.333 111.999 70h41zM159.001 352v-48h-317v48h317z" />
    <glyph glyph-name="two.numeratorkerned" unicode="&#xe016;" horiz-adv-x="1" 
d="M103 648l-56 0.00292969c-2 38 8.66699 69.333 32 94s56 37 98 37c36.667 0 67 -9.5 91 -28.5s36 -44.833 36 -77.5c0 -30 -8.33301 -54.833 -25 -74.5s-41 -38.834 -73 -57.501l-26 -14.5c-12.667 -7 -21.667 -12.333 -27 -16s-12 -8.5 -20 -14.5
s-13.833 -11.833 -17.5 -17.5s-6.16699 -11.834 -7.5 -18.501h192v-50h-264c2 29.333 8.83301 54.666 20.5 75.999s23.834 36.833 36.501 46.5s30 20.834 52 33.501c37.333 20.667 62.833 38 76.5 52s20.5 32.333 20.5 55c0 17.333 -5.5 31.666 -16.5 42.999
s-26.833 17 -47.5 17c-26 0 -45.333 -8.16699 -58 -24.5s-18.334 -36.5 -17.001 -60.5zM159 352.003v-48h-317v48h317z" />
    <glyph glyph-name="three.numeratorkerned" unicode="&#xe017;" horiz-adv-x="1" 
d="M140 577l-0.000976562 50c5.33301 -0.666992 12.333 -1 21 -1c19.333 0 35.333 4.5 48 13.5s19 22.167 19 39.5c0 36 -20 54 -60 54c-45.333 0 -68.666 -24.333 -69.999 -73h-56c1.33301 36 12.666 64.833 33.999 86.5s51.333 32.5 90 32.5c40 0 70.667 -8.66699 92 -26
s32 -40.666 32 -69.999c0 -36 -18.667 -61.333 -56 -76v-2c24 -4.66699 42.167 -15 54.5 -31s18.5 -35.333 18.5 -58c0 -35.333 -13.333 -62.833 -40 -82.5s-59.667 -29.5 -99 -29.5c-42 0 -75.167 10.667 -99.5 32s-36.166 50.666 -35.499 87.999h57
c1.33301 -49.333 27.333 -74 78 -74c23.333 0 42 5.83301 56 17.5s21 27.5 21 47.5c0 43.333 -25.333 65 -76 65c-1.33301 0 -11 -1 -29 -3zM158.999 352v-48h-317v48h317z" />
    <glyph glyph-name="four.numeratorkerned" unicode="&#xe018;" horiz-adv-x="1" 
d="M251 779v-239h55v-46h-55v-84h-56v84h-167v45l178 240h45zM82 540h113v150h-2zM159 352v-48h-317v48h317z" />
    <glyph glyph-name="five.numeratorkerned" unicode="&#xe019;" horiz-adv-x="1" 
d="M42 577l37.0029 196.001h202v-46h-162l-19 -91l1 -1c19.333 14 44.333 21 75 21c36 0 66.167 -11.333 90.5 -34s36.5 -53.334 36.5 -92.001c0 -36 -12.333 -66 -37 -90s-59.334 -36 -104.001 -36c-36 0 -66.333 9.5 -91 28.5s-37.334 44.5 -38.001 76.5h56
c1.33301 -18.667 8.66602 -33.167 21.999 -43.5s30.666 -15.5 51.999 -15.5c52 0 78 26.667 78 80c0 24.667 -7.16699 44.167 -21.5 58.5s-33.833 21.5 -58.5 21.5c-29.333 0 -54.666 -11.667 -75.999 -35zM159.003 352.001v-48h-317v48h317z" />
    <glyph glyph-name="six.numeratorkerned" unicode="&#xe01a;" horiz-adv-x="1" 
d="M171 601c-22.667 0 -40.5 -7.33301 -53.5 -22s-19.5 -32.667 -19.5 -54c0 -22 6.5 -40 19.5 -54s30.833 -21 53.5 -21s40.167 7 52.5 21s18.5 31.667 18.5 53c0 22 -6.16699 40.333 -18.5 55s-29.833 22 -52.5 22zM292 685h-56.0029c-6.66699 32 -26.667 48 -60 48
c-17.333 0 -32.166 -4 -44.499 -12s-21.166 -18.667 -26.499 -32s-9.16602 -26.166 -11.499 -38.499s-3.5 -25.5 -3.5 -39.5h2c14.667 24 42.667 36 84 36c40.667 0 72.167 -10.833 94.5 -32.5s33.5 -50.5 33.5 -86.5c0 -32 -10.833 -60.667 -32.5 -86
s-55.834 -38 -102.501 -38c-92.667 0 -139 59 -139 177c0 57.333 11.333 104.666 34 141.999s60.334 56 113.001 56c34 0 61 -8.33301 81 -25s31.333 -39.667 34 -69zM158.997 352v-48h-317v48h317z" />
    <glyph glyph-name="seven.numeratorkerned" unicode="&#xe01b;" horiz-adv-x="1" 
d="M312 773l-0.00292969 -40c-40.667 -36 -75.667 -84.5 -105 -145.5s-45.666 -120.167 -48.999 -177.5h-64c4.66699 59.333 20.834 116.5 48.501 171.5s61.834 102.167 102.501 141.5h-194v50h261zM158.997 352v-48h-317v48h317z" />
    <glyph glyph-name="eight.numeratorkerned" unicode="&#xe01c;" horiz-adv-x="1" 
d="M167 450c22.667 0 40.5 6 53.5 18s19.5 27.667 19.5 47s-6.66699 35.166 -20 47.499s-31 18.5 -53 18.5s-39.833 -6.16699 -53.5 -18.5s-20.5 -28.166 -20.5 -47.499s6.66699 -35 20 -47s31.333 -18 54 -18zM45 685c0 28.667 11.5 51.502 34.5 68.502
s51.167 25.5 84.5 25.5c40.667 0 71.167 -9.16699 91.5 -27.5s30.5 -40.5 30.5 -66.5c0 -16.667 -5.16699 -31.834 -15.5 -45.501s-23.833 -23.834 -40.5 -30.501v-2c48 -12.667 72 -43 72 -91c0 -34.667 -12.667 -62 -38 -82s-57.333 -30 -96 -30
c-40.667 0 -73.667 9.66699 -99 29s-38 47 -38 83c0 22 6.16699 41 18.5 57s29.5 27.333 51.5 34v2c-16.667 6 -30.167 16 -40.5 30s-15.5 29.333 -15.5 46zM107 679.002c0 -16 5.16699 -28.667 15.5 -38s24.833 -14 43.5 -14c18 0 32.167 4.66699 42.5 14s15.5 22 15.5 38
c0 15.333 -5.16699 28.166 -15.5 38.499s-24.5 15.5 -42.5 15.5s-32.333 -5.16699 -43 -15.5s-16 -23.166 -16 -38.499zM159 352.002v-48h-317v48h317z" />
    <glyph glyph-name="nine.numeratorkerned" unicode="&#xe01d;" horiz-adv-x="1" 
d="M163 582c22.667 0 40.5 7.33301 53.5 22s19.5 32.667 19.5 54c0 22 -6.5 40 -19.5 54s-30.833 21 -53.5 21s-40.167 -7 -52.5 -21s-18.5 -31.667 -18.5 -53c0 -22 6.16699 -40.333 18.5 -55s29.833 -22 52.5 -22zM42 498h56.0029c6.66699 -32 26.667 -48 60 -48
c17.333 0 32.166 4 44.499 12s21.166 18.667 26.499 32s9.16602 26.166 11.499 38.499s3.5 25.5 3.5 39.5h-2c-14.667 -24 -42.667 -36 -84 -36c-40.667 0 -72.167 10.833 -94.5 32.5s-33.5 50.5 -33.5 86.5c0 32 10.833 60.667 32.5 86s55.834 38 102.501 38
c92.667 0 139 -59 139 -177c0 -57.333 -11.333 -104.666 -34 -141.999s-60.334 -56 -113.001 -56c-34 0 -61 8.33301 -81 25s-31.333 39.667 -34 69zM159.003 352v-48h-317v48h317z" />
    <glyph glyph-name="zero.denominatorkerned" unicode="&#xe01e;" 
d="M31 65c0 64 11 111.167 33 141.5s56 45.5 102 45.5s80 -15.167 102 -45.5s33 -77.833 33 -142.5c0 -64 -11 -111.167 -33 -141.5s-56 -45.5 -102 -45.5s-80 15.167 -102 45.5s-33 77.833 -33 142.5zM93 65c0 -94.667 24.333 -142 73 -142s73 47 73 141
c0 94.667 -24.333 142 -73 142s-73 -47 -73 -141zM520 352v-48h-373v48h373z" />
    <glyph glyph-name="one.denominatorkerned" unicode="&#xe01f;" 
d="M213 252l0.000976562 -369h-56v263h-97v36c65.333 0 102.666 23.333 111.999 70h41zM520.001 352v-48h-373v48h373z" />
    <glyph glyph-name="two.denominatorkerned" unicode="&#xe020;" 
d="M103 121l-56 0.00292969c-2 38 8.66699 69.333 32 94s56 37 98 37c36.667 0 67 -9.5 91 -28.5s36 -44.833 36 -77.5c0 -30 -8.33301 -54.833 -25 -74.5s-41 -38.834 -73 -57.501l-26 -14.5c-12.667 -7 -21.667 -12.333 -27 -16s-12 -8.5 -20 -14.5
s-13.833 -11.833 -17.5 -17.5s-6.16699 -11.834 -7.5 -18.501h192v-50h-264c2 29.333 8.83301 54.666 20.5 75.999s23.834 36.833 36.501 46.5s30 20.834 52 33.501c37.333 20.667 62.833 38 76.5 52s20.5 32.333 20.5 55c0 17.333 -5.5 31.666 -16.5 42.999
s-26.833 17 -47.5 17c-26 0 -45.333 -8.16699 -58 -24.5s-18.334 -36.5 -17.001 -60.5zM520 352.003v-48h-373v48h373z" />
    <glyph glyph-name="three.denominatorkerned" unicode="&#xe021;" 
d="M140 50l-0.000976562 50c5.33301 -0.666992 12.333 -1 21 -1c19.333 0 35.333 4.5 48 13.5s19 22.167 19 39.5c0 36 -20 54 -60 54c-45.333 0 -68.666 -24.333 -69.999 -73h-56c1.33301 36 12.666 64.833 33.999 86.5s51.333 32.5 90 32.5c40 0 70.667 -8.66699 92 -26
s32 -40.666 32 -69.999c0 -36 -18.667 -61.333 -56 -76v-2c24 -4.66699 42.167 -15 54.5 -31s18.5 -35.333 18.5 -58c0 -35.333 -13.333 -62.833 -40 -82.5s-59.667 -29.5 -99 -29.5c-42 0 -75.167 10.667 -99.5 32s-36.166 50.666 -35.499 87.999h57
c1.33301 -49.333 27.333 -74 78 -74c23.333 0 42 5.83301 56 17.5s21 27.5 21 47.5c0 43.333 -25.333 65 -76 65c-1.33301 0 -11 -1 -29 -3zM519.999 352v-48h-373v48h373z" />
    <glyph glyph-name="four.denominatorkerned" unicode="&#xe022;" 
d="M251 252v-239h55v-46h-55v-84h-56v84h-167v45l178 240h45zM82 13h113v150h-2zM520 352v-48h-373v48h373z" />
    <glyph glyph-name="five.denominatorkerned" unicode="&#xe023;" 
d="M42 50l37.0029 196.001h202v-46h-162l-19 -91l1 -1c19.333 14 44.333 21 75 21c36 0 66.167 -11.333 90.5 -34s36.5 -53.334 36.5 -92.001c0 -36 -12.333 -66 -37 -90s-59.334 -36 -104.001 -36c-36 0 -66.333 9.5 -91 28.5s-37.334 44.5 -38.001 76.5h56
c1.33301 -18.667 8.66602 -33.167 21.999 -43.5s30.666 -15.5 51.999 -15.5c52 0 78 26.667 78 80c0 24.667 -7.16699 44.167 -21.5 58.5s-33.833 21.5 -58.5 21.5c-29.333 0 -54.666 -11.667 -75.999 -35zM520.003 352.001v-48h-373v48h373z" />
    <glyph glyph-name="six.denominatorkerned" unicode="&#xe024;" 
d="M171 74c-22.667 0 -40.5 -7.33301 -53.5 -22s-19.5 -32.667 -19.5 -54c0 -22 6.5 -40 19.5 -54s30.833 -21 53.5 -21s40.167 7 52.5 21s18.5 31.667 18.5 53c0 22 -6.16699 40.333 -18.5 55s-29.833 22 -52.5 22zM292 158h-56.0029c-6.66699 32 -26.667 48 -60 48
c-17.333 0 -32.166 -4 -44.499 -12s-21.166 -18.667 -26.499 -32s-9.16602 -26.166 -11.499 -38.499s-3.5 -25.5 -3.5 -39.5h2c14.667 24 42.667 36 84 36c40.667 0 72.167 -10.833 94.5 -32.5s33.5 -50.5 33.5 -86.5c0 -32 -10.833 -60.667 -32.5 -86
s-55.834 -38 -102.501 -38c-92.667 0 -139 59 -139 177c0 57.333 11.333 104.666 34 141.999s60.334 56 113.001 56c34 0 61 -8.33301 81 -25s31.333 -39.667 34 -69zM519.997 352v-48h-373v48h373z" />
    <glyph glyph-name="seven.denominatorkerned" unicode="&#xe025;" 
d="M312 246l-0.00292969 -40c-40.667 -36 -75.667 -84.5 -105 -145.5s-45.666 -120.167 -48.999 -177.5h-64c4.66699 59.333 20.834 116.5 48.501 171.5s61.834 102.167 102.501 141.5h-194v50h261zM519.997 352v-48h-373v48h373z" />
    <glyph glyph-name="eight.denominatorkerned" unicode="&#xe026;" 
d="M167 -77c22.667 0 40.5 6 53.5 18s19.5 27.667 19.5 47s-6.66699 35.166 -20 47.499s-31 18.5 -53 18.5s-39.833 -6.16699 -53.5 -18.5s-20.5 -28.166 -20.5 -47.499s6.66699 -35 20 -47s31.333 -18 54 -18zM45 158c0 28.667 11.5 51.502 34.5 68.502
s51.167 25.5 84.5 25.5c40.667 0 71.167 -9.16699 91.5 -27.5s30.5 -40.5 30.5 -66.5c0 -16.667 -5.16699 -31.834 -15.5 -45.501s-23.833 -23.834 -40.5 -30.501v-2c48 -12.667 72 -43 72 -91c0 -34.667 -12.667 -62 -38 -82s-57.333 -30 -96 -30
c-40.667 0 -73.667 9.66699 -99 29s-38 47 -38 83c0 22 6.16699 41 18.5 57s29.5 27.333 51.5 34v2c-16.667 6 -30.167 16 -40.5 30s-15.5 29.333 -15.5 46zM107 152.002c0 -16 5.16699 -28.667 15.5 -38s24.833 -14 43.5 -14c18 0 32.167 4.66699 42.5 14s15.5 22 15.5 38
c0 15.333 -5.16699 28.166 -15.5 38.499s-24.5 15.5 -42.5 15.5s-32.333 -5.16699 -43 -15.5s-16 -23.166 -16 -38.499zM520 352.002v-48h-373v48h373z" />
    <glyph glyph-name="nine.denominatorkerned" unicode="&#xe027;" 
d="M163 55c22.667 0 40.5 7.33301 53.5 22s19.5 32.667 19.5 54c0 22 -6.5 40 -19.5 54s-30.833 21 -53.5 21s-40.167 -7 -52.5 -21s-18.5 -31.667 -18.5 -53c0 -22 6.16699 -40.333 18.5 -55s29.833 -22 52.5 -22zM42 -29h56.0029c6.66699 -32 26.667 -48 60 -48
c17.333 0 32.166 4 44.499 12s21.166 18.667 26.499 32s9.16602 26.166 11.499 38.499s3.5 25.5 3.5 39.5h-2c-14.667 -24 -42.667 -36 -84 -36c-40.667 0 -72.167 10.833 -94.5 32.5s-33.5 50.5 -33.5 86.5c0 32 10.833 60.667 32.5 86s55.834 38 102.501 38
c92.667 0 139 -59 139 -177c0 -57.333 -11.333 -104.666 -34 -141.999s-60.334 -56 -113.001 -56c-34 0 -61 8.33301 -81 25s-31.333 39.667 -34 69zM520.003 352v-48h-373v48h373z" />
    <glyph glyph-name="zero.numeratoraligned" unicode="&#xe028;" 
d="M31 592c0 64 11 111.167 33 141.5s56 45.5 102 45.5s80 -15.167 102 -45.5s33 -77.833 33 -142.5c0 -64 -11 -111.167 -33 -141.5s-56 -45.5 -102 -45.5s-80 15.167 -102 45.5s-33 77.833 -33 142.5zM93 592c0 -94.667 24.333 -142 73 -142s73 47 73 141
c0 94.667 -24.333 142 -73 142s-73 -47 -73 -141zM326 352v-48h-317v48h317z" />
    <glyph glyph-name="one.numeratoraligned" unicode="&#xe029;" 
d="M213 779l0.000976562 -369h-56v263h-97v36c65.333 0 102.666 23.333 111.999 70h41zM326.001 352v-48h-317v48h317z" />
    <glyph glyph-name="two.numeratoraligned" unicode="&#xe02a;" 
d="M103 648l-56 0.00292969c-2 38 8.66699 69.333 32 94s56 37 98 37c36.667 0 67 -9.5 91 -28.5s36 -44.833 36 -77.5c0 -30 -8.33301 -54.833 -25 -74.5s-41 -38.834 -73 -57.501l-26 -14.5c-12.667 -7 -21.667 -12.333 -27 -16s-12 -8.5 -20 -14.5
s-13.833 -11.833 -17.5 -17.5s-6.16699 -11.834 -7.5 -18.501h192v-50h-264c2 29.333 8.83301 54.666 20.5 75.999s23.834 36.833 36.501 46.5s30 20.834 52 33.501c37.333 20.667 62.833 38 76.5 52s20.5 32.333 20.5 55c0 17.333 -5.5 31.666 -16.5 42.999
s-26.833 17 -47.5 17c-26 0 -45.333 -8.16699 -58 -24.5s-18.334 -36.5 -17.001 -60.5zM326 352.003v-48h-317v48h317z" />
    <glyph glyph-name="three.numeratoraligned" unicode="&#xe02b;" 
d="M140 577l-0.000976562 50c5.33301 -0.666992 12.333 -1 21 -1c19.333 0 35.333 4.5 48 13.5s19 22.167 19 39.5c0 36 -20 54 -60 54c-45.333 0 -68.666 -24.333 -69.999 -73h-56c1.33301 36 12.666 64.833 33.999 86.5s51.333 32.5 90 32.5c40 0 70.667 -8.66699 92 -26
s32 -40.666 32 -69.999c0 -36 -18.667 -61.333 -56 -76v-2c24 -4.66699 42.167 -15 54.5 -31s18.5 -35.333 18.5 -58c0 -35.333 -13.333 -62.833 -40 -82.5s-59.667 -29.5 -99 -29.5c-42 0 -75.167 10.667 -99.5 32s-36.166 50.666 -35.499 87.999h57
c1.33301 -49.333 27.333 -74 78 -74c23.333 0 42 5.83301 56 17.5s21 27.5 21 47.5c0 43.333 -25.333 65 -76 65c-1.33301 0 -11 -1 -29 -3zM325.999 352v-48h-317v48h317z" />
    <glyph glyph-name="four.numeratoraligned" unicode="&#xe02c;" 
d="M251 779v-239h55v-46h-55v-84h-56v84h-167v45l178 240h45zM82 540h113v150h-2zM326 352v-48h-317v48h317z" />
    <glyph glyph-name="five.numeratoraligned" unicode="&#xe02d;" 
d="M42 577l37.0029 196.001h202v-46h-162l-19 -91l1 -1c19.333 14 44.333 21 75 21c36 0 66.167 -11.333 90.5 -34s36.5 -53.334 36.5 -92.001c0 -36 -12.333 -66 -37 -90s-59.334 -36 -104.001 -36c-36 0 -66.333 9.5 -91 28.5s-37.334 44.5 -38.001 76.5h56
c1.33301 -18.667 8.66602 -33.167 21.999 -43.5s30.666 -15.5 51.999 -15.5c52 0 78 26.667 78 80c0 24.667 -7.16699 44.167 -21.5 58.5s-33.833 21.5 -58.5 21.5c-29.333 0 -54.666 -11.667 -75.999 -35zM326.003 352.001v-48h-317v48h317z" />
    <glyph glyph-name="six.numeratoraligned" unicode="&#xe02e;" 
d="M171 601c-22.667 0 -40.5 -7.33301 -53.5 -22s-19.5 -32.667 -19.5 -54c0 -22 6.5 -40 19.5 -54s30.833 -21 53.5 -21s40.167 7 52.5 21s18.5 31.667 18.5 53c0 22 -6.16699 40.333 -18.5 55s-29.833 22 -52.5 22zM292 685h-56.0029c-6.66699 32 -26.667 48 -60 48
c-17.333 0 -32.166 -4 -44.499 -12s-21.166 -18.667 -26.499 -32s-9.16602 -26.166 -11.499 -38.499s-3.5 -25.5 -3.5 -39.5h2c14.667 24 42.667 36 84 36c40.667 0 72.167 -10.833 94.5 -32.5s33.5 -50.5 33.5 -86.5c0 -32 -10.833 -60.667 -32.5 -86
s-55.834 -38 -102.501 -38c-92.667 0 -139 59 -139 177c0 57.333 11.333 104.666 34 141.999s60.334 56 113.001 56c34 0 61 -8.33301 81 -25s31.333 -39.667 34 -69zM325.997 352v-48h-317v48h317z" />
    <glyph glyph-name="seven.numeratoraligned" unicode="&#xe02f;" 
d="M312 773l-0.00292969 -40c-40.667 -36 -75.667 -84.5 -105 -145.5s-45.666 -120.167 -48.999 -177.5h-64c4.66699 59.333 20.834 116.5 48.501 171.5s61.834 102.167 102.501 141.5h-194v50h261zM325.997 352v-48h-317v48h317z" />
    <glyph glyph-name="eight.numeratoraligned" unicode="&#xe030;" 
d="M167 450c22.667 0 40.5 6 53.5 18s19.5 27.667 19.5 47s-6.66699 35.166 -20 47.499s-31 18.5 -53 18.5s-39.833 -6.16699 -53.5 -18.5s-20.5 -28.166 -20.5 -47.499s6.66699 -35 20 -47s31.333 -18 54 -18zM45 685c0 28.667 11.5 51.502 34.5 68.502
s51.167 25.5 84.5 25.5c40.667 0 71.167 -9.16699 91.5 -27.5s30.5 -40.5 30.5 -66.5c0 -16.667 -5.16699 -31.834 -15.5 -45.501s-23.833 -23.834 -40.5 -30.501v-2c48 -12.667 72 -43 72 -91c0 -34.667 -12.667 -62 -38 -82s-57.333 -30 -96 -30
c-40.667 0 -73.667 9.66699 -99 29s-38 47 -38 83c0 22 6.16699 41 18.5 57s29.5 27.333 51.5 34v2c-16.667 6 -30.167 16 -40.5 30s-15.5 29.333 -15.5 46zM107 679.002c0 -16 5.16699 -28.667 15.5 -38s24.833 -14 43.5 -14c18 0 32.167 4.66699 42.5 14s15.5 22 15.5 38
c0 15.333 -5.16699 28.166 -15.5 38.499s-24.5 15.5 -42.5 15.5s-32.333 -5.16699 -43 -15.5s-16 -23.166 -16 -38.499zM326 352.002v-48h-317v48h317z" />
    <glyph glyph-name="nine.numeratoraligned" unicode="&#xe031;" 
d="M163 582c22.667 0 40.5 7.33301 53.5 22s19.5 32.667 19.5 54c0 22 -6.5 40 -19.5 54s-30.833 21 -53.5 21s-40.167 -7 -52.5 -21s-18.5 -31.667 -18.5 -53c0 -22 6.16699 -40.333 18.5 -55s29.833 -22 52.5 -22zM42 498h56.0029c6.66699 -32 26.667 -48 60 -48
c17.333 0 32.166 4 44.499 12s21.166 18.667 26.499 32s9.16602 26.166 11.499 38.499s3.5 25.5 3.5 39.5h-2c-14.667 -24 -42.667 -36 -84 -36c-40.667 0 -72.167 10.833 -94.5 32.5s-33.5 50.5 -33.5 86.5c0 32 10.833 60.667 32.5 86s55.834 38 102.501 38
c92.667 0 139 -59 139 -177c0 -57.333 -11.333 -104.666 -34 -141.999s-60.334 -56 -113.001 -56c-34 0 -61 8.33301 -81 25s-31.333 39.667 -34 69zM326.003 352v-48h-317v48h317z" />
    <glyph glyph-name="zero.denominatorcentered" unicode="&#xe032;" horiz-adv-x="1" 
d="M-135 65c0 64 11 111.167 33 141.5s56 45.5 102 45.5s80 -15.167 102 -45.5s33 -77.833 33 -142.5c0 -64 -11 -111.167 -33 -141.5s-56 -45.5 -102 -45.5s-80 15.167 -102 45.5s-33 77.833 -33 142.5zM-73 65c0 -94.667 24.333 -142 73 -142s73 47 73 141
c0 94.667 -24.333 142 -73 142s-73 -47 -73 -141zM159 352v-48h-317v48h317z" />
    <glyph glyph-name="one.denominatorcentered" unicode="&#xe033;" horiz-adv-x="1" 
d="M47 252l0.000976562 -369h-56v263h-97v36c65.333 0 102.666 23.333 111.999 70h41zM159.001 352v-48h-317v48h317z" />
    <glyph glyph-name="two.denominatorcentered" unicode="&#xe034;" horiz-adv-x="1" 
d="M-63 121l-56 0.00292969c-2 38 8.66699 69.333 32 94s56 37 98 37c36.667 0 67 -9.5 91 -28.5s36 -44.833 36 -77.5c0 -30 -8.33301 -54.833 -25 -74.5s-41 -38.834 -73 -57.501l-26 -14.5c-12.667 -7 -21.667 -12.333 -27 -16s-12 -8.5 -20 -14.5
s-13.833 -11.833 -17.5 -17.5s-6.16699 -11.834 -7.5 -18.501h192v-50h-264c2 29.333 8.83301 54.666 20.5 75.999s23.834 36.833 36.501 46.5s30 20.834 52 33.501c37.333 20.667 62.833 38 76.5 52s20.5 32.333 20.5 55c0 17.333 -5.5 31.666 -16.5 42.999
s-26.833 17 -47.5 17c-26 0 -45.333 -8.16699 -58 -24.5s-18.334 -36.5 -17.001 -60.5zM159 352.003v-48h-317v48h317z" />
    <glyph glyph-name="three.denominatorcentered" unicode="&#xe035;" horiz-adv-x="1" 
d="M-26 50l-0.000976562 50c5.33301 -0.666992 12.333 -1 21 -1c19.333 0 35.333 4.5 48 13.5s19 22.167 19 39.5c0 36 -20 54 -60 54c-45.333 0 -68.666 -24.333 -69.999 -73h-56c1.33301 36 12.666 64.833 33.999 86.5s51.333 32.5 90 32.5c40 0 70.667 -8.66699 92 -26
s32 -40.666 32 -69.999c0 -36 -18.667 -61.333 -56 -76v-2c24 -4.66699 42.167 -15 54.5 -31s18.5 -35.333 18.5 -58c0 -35.333 -13.333 -62.833 -40 -82.5s-59.667 -29.5 -99 -29.5c-42 0 -75.167 10.667 -99.5 32s-36.166 50.666 -35.499 87.999h57
c1.33301 -49.333 27.333 -74 78 -74c23.333 0 42 5.83301 56 17.5s21 27.5 21 47.5c0 43.333 -25.333 65 -76 65c-1.33301 0 -11 -1 -29 -3zM158.999 352v-48h-317v48h317z" />
    <glyph glyph-name="four.denominatorcentered" unicode="&#xe036;" horiz-adv-x="1" 
d="M85 252v-239h55v-46h-55v-84h-56v84h-167v45l178 240h45zM-84 13h113v150h-2zM159 352v-48h-317v48h317z" />
    <glyph glyph-name="five.denominatorcentered" unicode="&#xe037;" horiz-adv-x="1" 
d="M-124 50l37.0029 196.001h202v-46h-162l-19 -91l1 -1c19.333 14 44.333 21 75 21c36 0 66.167 -11.333 90.5 -34s36.5 -53.334 36.5 -92.001c0 -36 -12.333 -66 -37 -90s-59.334 -36 -104.001 -36c-36 0 -66.333 9.5 -91 28.5s-37.334 44.5 -38.001 76.5h56
c1.33301 -18.667 8.66602 -33.167 21.999 -43.5s30.666 -15.5 51.999 -15.5c52 0 78 26.667 78 80c0 24.667 -7.16699 44.167 -21.5 58.5s-33.833 21.5 -58.5 21.5c-29.333 0 -54.666 -11.667 -75.999 -35zM159.003 352.001v-48h-317v48h317z" />
    <glyph glyph-name="six.denominatorcentered" unicode="&#xe038;" horiz-adv-x="1" 
d="M5 74c-22.667 0 -40.5 -7.33301 -53.5 -22s-19.5 -32.667 -19.5 -54c0 -22 6.5 -40 19.5 -54s30.833 -21 53.5 -21s40.167 7 52.5 21s18.5 31.667 18.5 53c0 22 -6.16699 40.333 -18.5 55s-29.833 22 -52.5 22zM126 158h-56.0029c-6.66699 32 -26.667 48 -60 48
c-17.333 0 -32.166 -4 -44.499 -12s-21.166 -18.667 -26.499 -32s-9.16602 -26.166 -11.499 -38.499s-3.5 -25.5 -3.5 -39.5h2c14.667 24 42.667 36 84 36c40.667 0 72.167 -10.833 94.5 -32.5s33.5 -50.5 33.5 -86.5c0 -32 -10.833 -60.667 -32.5 -86
s-55.834 -38 -102.501 -38c-92.667 0 -139 59 -139 177c0 57.333 11.333 104.666 34 141.999s60.334 56 113.001 56c34 0 61 -8.33301 81 -25s31.333 -39.667 34 -69zM158.997 352v-48h-317v48h317z" />
    <glyph glyph-name="seven.denominatorcentered" unicode="&#xe039;" horiz-adv-x="1" 
d="M146 246l-0.00292969 -40c-40.667 -36 -75.667 -84.5 -105 -145.5s-45.666 -120.167 -48.999 -177.5h-64c4.66699 59.333 20.834 116.5 48.501 171.5s61.834 102.167 102.501 141.5h-194v50h261zM158.997 352v-48h-317v48h317z" />
    <glyph glyph-name="eight.denominatorcentered" unicode="&#xe03a;" horiz-adv-x="1" 
d="M1 -77c22.667 0 40.5 6 53.5 18s19.5 27.667 19.5 47s-6.66699 35.166 -20 47.499s-31 18.5 -53 18.5s-39.833 -6.16699 -53.5 -18.5s-20.5 -28.166 -20.5 -47.499s6.66699 -35 20 -47s31.333 -18 54 -18zM-121 158c0 28.667 11.5 51.502 34.5 68.502
s51.167 25.5 84.5 25.5c40.667 0 71.167 -9.16699 91.5 -27.5s30.5 -40.5 30.5 -66.5c0 -16.667 -5.16699 -31.834 -15.5 -45.501s-23.833 -23.834 -40.5 -30.501v-2c48 -12.667 72 -43 72 -91c0 -34.667 -12.667 -62 -38 -82s-57.333 -30 -96 -30
c-40.667 0 -73.667 9.66699 -99 29s-38 47 -38 83c0 22 6.16699 41 18.5 57s29.5 27.333 51.5 34v2c-16.667 6 -30.167 16 -40.5 30s-15.5 29.333 -15.5 46zM-59 152.002c0 -16 5.16699 -28.667 15.5 -38s24.833 -14 43.5 -14c18 0 32.167 4.66699 42.5 14s15.5 22 15.5 38
c0 15.333 -5.16699 28.166 -15.5 38.499s-24.5 15.5 -42.5 15.5s-32.333 -5.16699 -43 -15.5s-16 -23.166 -16 -38.499zM159 352.002v-48h-317v48h317z" />
    <glyph glyph-name="nine.denominatorcentered" unicode="&#xe03b;" horiz-adv-x="1" 
d="M-3 55c22.667 0 40.5 7.33301 53.5 22s19.5 32.667 19.5 54c0 22 -6.5 40 -19.5 54s-30.833 21 -53.5 21s-40.167 -7 -52.5 -21s-18.5 -31.667 -18.5 -53c0 -22 6.16699 -40.333 18.5 -55s29.833 -22 52.5 -22zM-124 -29h56.0029c6.66699 -32 26.667 -48 60 -48
c17.333 0 32.166 4 44.499 12s21.166 18.667 26.499 32s9.16602 26.166 11.499 38.499s3.5 25.5 3.5 39.5h-2c-14.667 -24 -42.667 -36 -84 -36c-40.667 0 -72.167 10.833 -94.5 32.5s-33.5 50.5 -33.5 86.5c0 32 10.833 60.667 32.5 86s55.834 38 102.501 38
c92.667 0 139 -59 139 -177c0 -57.333 -11.333 -104.666 -34 -141.999s-60.334 -56 -113.001 -56c-34 0 -61 8.33301 -81 25s-31.333 39.667 -34 69zM159.003 352v-48h-317v48h317z" />
    <glyph glyph-name="zero.numeratorcentered" unicode="&#xe03c;" horiz-adv-x="1" 
d="M-135 592c0 64 11 111.167 33 141.5s56 45.5 102 45.5s80 -15.167 102 -45.5s33 -77.833 33 -142.5c0 -64 -11 -111.167 -33 -141.5s-56 -45.5 -102 -45.5s-80 15.167 -102 45.5s-33 77.833 -33 142.5zM-73 592c0 -94.667 24.333 -142 73 -142s73 47 73 141
c0 94.667 -24.333 142 -73 142s-73 -47 -73 -141zM159 352v-48h-317v48h317z" />
    <glyph glyph-name="one.numeratorcentered" unicode="&#xe03d;" horiz-adv-x="1" 
d="M47 779l0.000976562 -369h-56v263h-97v36c65.333 0 102.666 23.333 111.999 70h41zM159.001 352v-48h-317v48h317z" />
    <glyph glyph-name="two.numeratorcentered" unicode="&#xe03e;" horiz-adv-x="1" 
d="M-63 648l-56 0.00292969c-2 38 8.66699 69.333 32 94s56 37 98 37c36.667 0 67 -9.5 91 -28.5s36 -44.833 36 -77.5c0 -30 -8.33301 -54.833 -25 -74.5s-41 -38.834 -73 -57.501l-26 -14.5c-12.667 -7 -21.667 -12.333 -27 -16s-12 -8.5 -20 -14.5
s-13.833 -11.833 -17.5 -17.5s-6.16699 -11.834 -7.5 -18.501h192v-50h-264c2 29.333 8.83301 54.666 20.5 75.999s23.834 36.833 36.501 46.5s30 20.834 52 33.501c37.333 20.667 62.833 38 76.5 52s20.5 32.333 20.5 55c0 17.333 -5.5 31.666 -16.5 42.999
s-26.833 17 -47.5 17c-26 0 -45.333 -8.16699 -58 -24.5s-18.334 -36.5 -17.001 -60.5zM159 352.003v-48h-317v48h317z" />
    <glyph glyph-name="three.numeratorcentered" unicode="&#xe03f;" horiz-adv-x="1" 
d="M-26 577l-0.000976562 50c5.33301 -0.666992 12.333 -1 21 -1c19.333 0 35.333 4.5 48 13.5s19 22.167 19 39.5c0 36 -20 54 -60 54c-45.333 0 -68.666 -24.333 -69.999 -73h-56c1.33301 36 12.666 64.833 33.999 86.5s51.333 32.5 90 32.5c40 0 70.667 -8.66699 92 -26
s32 -40.666 32 -69.999c0 -36 -18.667 -61.333 -56 -76v-2c24 -4.66699 42.167 -15 54.5 -31s18.5 -35.333 18.5 -58c0 -35.333 -13.333 -62.833 -40 -82.5s-59.667 -29.5 -99 -29.5c-42 0 -75.167 10.667 -99.5 32s-36.166 50.666 -35.499 87.999h57
c1.33301 -49.333 27.333 -74 78 -74c23.333 0 42 5.83301 56 17.5s21 27.5 21 47.5c0 43.333 -25.333 65 -76 65c-1.33301 0 -11 -1 -29 -3zM158.999 352v-48h-317v48h317z" />
    <glyph glyph-name="four.numeratorcentered" unicode="&#xe040;" horiz-adv-x="1" 
d="M85 779v-239h55v-46h-55v-84h-56v84h-167v45l178 240h45zM-84 540h113v150h-2zM159 352v-48h-317v48h317z" />
    <glyph glyph-name="five.numeratorcentered" unicode="&#xe041;" horiz-adv-x="1" 
d="M-124 577l37.0029 196.001h202v-46h-162l-19 -91l1 -1c19.333 14 44.333 21 75 21c36 0 66.167 -11.333 90.5 -34s36.5 -53.334 36.5 -92.001c0 -36 -12.333 -66 -37 -90s-59.334 -36 -104.001 -36c-36 0 -66.333 9.5 -91 28.5s-37.334 44.5 -38.001 76.5h56
c1.33301 -18.667 8.66602 -33.167 21.999 -43.5s30.666 -15.5 51.999 -15.5c52 0 78 26.667 78 80c0 24.667 -7.16699 44.167 -21.5 58.5s-33.833 21.5 -58.5 21.5c-29.333 0 -54.666 -11.667 -75.999 -35zM159.003 352.001v-48h-317v48h317z" />
    <glyph glyph-name="six.numeratorcentered" unicode="&#xe042;" horiz-adv-x="1" 
d="M5 601c-22.667 0 -40.5 -7.33301 -53.5 -22s-19.5 -32.667 -19.5 -54c0 -22 6.5 -40 19.5 -54s30.833 -21 53.5 -21s40.167 7 52.5 21s18.5 31.667 18.5 53c0 22 -6.16699 40.333 -18.5 55s-29.833 22 -52.5 22zM126 685h-56.0029c-6.66699 32 -26.667 48 -60 48
c-17.333 0 -32.166 -4 -44.499 -12s-21.166 -18.667 -26.499 -32s-9.16602 -26.166 -11.499 -38.499s-3.5 -25.5 -3.5 -39.5h2c14.667 24 42.667 36 84 36c40.667 0 72.167 -10.833 94.5 -32.5s33.5 -50.5 33.5 -86.5c0 -32 -10.833 -60.667 -32.5 -86
s-55.834 -38 -102.501 -38c-92.667 0 -139 59 -139 177c0 57.333 11.333 104.666 34 141.999s60.334 56 113.001 56c34 0 61 -8.33301 81 -25s31.333 -39.667 34 -69zM158.997 352v-48h-317v48h317z" />
    <glyph glyph-name="seven.numeratorcentered" unicode="&#xe043;" horiz-adv-x="1" 
d="M146 773l-0.00292969 -40c-40.667 -36 -75.667 -84.5 -105 -145.5s-45.666 -120.167 -48.999 -177.5h-64c4.66699 59.333 20.834 116.5 48.501 171.5s61.834 102.167 102.501 141.5h-194v50h261zM158.997 352v-48h-317v48h317z" />
    <glyph glyph-name="eight.numeratorcentered" unicode="&#xe044;" horiz-adv-x="1" 
d="M1 450c22.667 0 40.5 6 53.5 18s19.5 27.667 19.5 47s-6.66699 35.166 -20 47.499s-31 18.5 -53 18.5s-39.833 -6.16699 -53.5 -18.5s-20.5 -28.166 -20.5 -47.499s6.66699 -35 20 -47s31.333 -18 54 -18zM-121 685c0 28.667 11.5 51.502 34.5 68.502
s51.167 25.5 84.5 25.5c40.667 0 71.167 -9.16699 91.5 -27.5s30.5 -40.5 30.5 -66.5c0 -16.667 -5.16699 -31.834 -15.5 -45.501s-23.833 -23.834 -40.5 -30.501v-2c48 -12.667 72 -43 72 -91c0 -34.667 -12.667 -62 -38 -82s-57.333 -30 -96 -30
c-40.667 0 -73.667 9.66699 -99 29s-38 47 -38 83c0 22 6.16699 41 18.5 57s29.5 27.333 51.5 34v2c-16.667 6 -30.167 16 -40.5 30s-15.5 29.333 -15.5 46zM-59 679.002c0 -16 5.16699 -28.667 15.5 -38s24.833 -14 43.5 -14c18 0 32.167 4.66699 42.5 14s15.5 22 15.5 38
c0 15.333 -5.16699 28.166 -15.5 38.499s-24.5 15.5 -42.5 15.5s-32.333 -5.16699 -43 -15.5s-16 -23.166 -16 -38.499zM159 352.002v-48h-317v48h317z" />
    <glyph glyph-name="nine.numeratorcentered" unicode="&#xe045;" horiz-adv-x="1" 
d="M-3 582c22.667 0 40.5 7.33301 53.5 22s19.5 32.667 19.5 54c0 22 -6.5 40 -19.5 54s-30.833 21 -53.5 21s-40.167 -7 -52.5 -21s-18.5 -31.667 -18.5 -53c0 -22 6.16699 -40.333 18.5 -55s29.833 -22 52.5 -22zM-124 498h56.0029c6.66699 -32 26.667 -48 60 -48
c17.333 0 32.166 4 44.499 12s21.166 18.667 26.499 32s9.16602 26.166 11.499 38.499s3.5 25.5 3.5 39.5h-2c-14.667 -24 -42.667 -36 -84 -36c-40.667 0 -72.167 10.833 -94.5 32.5s-33.5 50.5 -33.5 86.5c0 32 10.833 60.667 32.5 86s55.834 38 102.501 38
c92.667 0 139 -59 139 -177c0 -57.333 -11.333 -104.666 -34 -141.999s-60.334 -56 -113.001 -56c-34 0 -61 8.33301 -81 25s-31.333 39.667 -34 69zM159.003 352v-48h-317v48h317z" />
    <glyph glyph-name="shiftfraction" unicode="&#xe046;" horiz-adv-x="167" 
d="M-167 -12l441 721h60l-441 -721h-60z" />
    <glyph glyph-name="uni00BC.stacked" unicode="&#xe047;" horiz-adv-x="362" 
d="M251 252v-239h55v-46h-55v-84h-56v84h-167v45l178 240h45zM82 13h113v150h-2zM213 779l0.000976562 -369h-56v263h-97v36c65.333 0 102.666 23.333 111.999 70h41zM420.001 352v-48h-478v48h478z" />
    <glyph glyph-name="uni00BD.stacked" unicode="&#xe048;" horiz-adv-x="362" 
d="M213 779l0.000976562 -369h-56v263h-97v36c65.333 0 102.666 23.333 111.999 70h41zM103.001 121l-56 0.00292969c-2 38 8.66699 69.333 32 94s56 37 98 37c36.667 0 67 -9.5 91 -28.5s36 -44.833 36 -77.5c0 -30 -8.33301 -54.833 -25 -74.5s-41 -38.834 -73 -57.501
l-26 -14.5c-12.667 -7 -21.667 -12.333 -27 -16s-12 -8.5 -20 -14.5s-13.833 -11.833 -17.5 -17.5s-6.16699 -11.834 -7.5 -18.501h192v-50h-264c2 29.333 8.83301 54.666 20.5 75.999s23.834 36.833 36.501 46.5s30 20.834 52 33.501c37.333 20.667 62.833 38 76.5 52
s20.5 32.333 20.5 55c0 17.333 -5.5 31.666 -16.5 42.999s-26.833 17 -47.5 17c-26 0 -45.333 -8.16699 -58 -24.5s-18.334 -36.5 -17.001 -60.5zM420.001 352.003v-48h-478v48h478z" />
    <glyph glyph-name="uni00BE.stacked" unicode="&#xe049;" horiz-adv-x="362" 
d="M251 252v-239h55v-46h-55v-84h-56v84h-167v45l178 240h45zM82 13h113v150h-2zM140 577l-0.000976562 50c5.33301 -0.666992 12.333 -1 21 -1c19.333 0 35.333 4.5 48 13.5s19 22.167 19 39.5c0 36 -20 54 -60 54c-45.333 0 -68.666 -24.333 -69.999 -73h-56
c1.33301 36 12.666 64.833 33.999 86.5s51.333 32.5 90 32.5c40 0 70.667 -8.66699 92 -26s32 -40.666 32 -69.999c0 -36 -18.667 -61.333 -56 -76v-2c24 -4.66699 42.167 -15 54.5 -31s18.5 -35.333 18.5 -58c0 -35.333 -13.333 -62.833 -40 -82.5s-59.667 -29.5 -99 -29.5
c-42 0 -75.167 10.667 -99.5 32s-36.166 50.666 -35.499 87.999h57c1.33301 -49.333 27.333 -74 78 -74c23.333 0 42 5.83301 56 17.5s21 27.5 21 47.5c0 43.333 -25.333 65 -76 65c-1.33301 0 -11 -1 -29 -3zM419.999 352v-48h-478v48h478z" />
    <glyph glyph-name="uni2153.stacked" unicode="&#xe04a;" horiz-adv-x="362" 
d="M420 352v-48h-478v48h478zM213 779l0.000976562 -369h-56v263h-97v36c65.333 0 102.666 23.333 111.999 70h41zM140.001 50l-0.000976562 50c5.33301 -0.666992 12.333 -1 21 -1c19.333 0 35.333 4.5 48 13.5s19 22.167 19 39.5c0 36 -20 54 -60 54
c-45.333 0 -68.666 -24.333 -69.999 -73h-56c1.33301 36 12.666 64.833 33.999 86.5s51.333 32.5 90 32.5c40 0 70.667 -8.66699 92 -26s32 -40.666 32 -69.999c0 -36 -18.667 -61.333 -56 -76v-2c24 -4.66699 42.167 -15 54.5 -31s18.5 -35.333 18.5 -58
c0 -35.333 -13.333 -62.833 -40 -82.5s-59.667 -29.5 -99 -29.5c-42 0 -75.167 10.667 -99.5 32s-36.166 50.666 -35.499 87.999h57c1.33301 -49.333 27.333 -74 78 -74c23.333 0 42 5.83301 56 17.5s21 27.5 21 47.5c0 43.333 -25.333 65 -76 65c-1.33301 0 -11 -1 -29 -3z
" />
    <glyph glyph-name="uni2154.stacked" unicode="&#xe04b;" horiz-adv-x="362" 
d="M103 648l-56 0.00292969c-2 38 8.66699 69.333 32 94s56 37 98 37c36.667 0 67 -9.5 91 -28.5s36 -44.833 36 -77.5c0 -30 -8.33301 -54.833 -25 -74.5s-41 -38.834 -73 -57.501l-26 -14.5c-12.667 -7 -21.667 -12.333 -27 -16s-12 -8.5 -20 -14.5
s-13.833 -11.833 -17.5 -17.5s-6.16699 -11.834 -7.5 -18.501h192v-50h-264c2 29.333 8.83301 54.666 20.5 75.999s23.834 36.833 36.501 46.5s30 20.834 52 33.501c37.333 20.667 62.833 38 76.5 52s20.5 32.333 20.5 55c0 17.333 -5.5 31.666 -16.5 42.999
s-26.833 17 -47.5 17c-26 0 -45.333 -8.16699 -58 -24.5s-18.334 -36.5 -17.001 -60.5zM140 50.0029l-0.000976562 50c5.33301 -0.666992 12.333 -1 21 -1c19.333 0 35.333 4.5 48 13.5s19 22.167 19 39.5c0 36 -20 54 -60 54c-45.333 0 -68.666 -24.333 -69.999 -73h-56
c1.33301 36 12.666 64.833 33.999 86.5s51.333 32.5 90 32.5c40 0 70.667 -8.66699 92 -26s32 -40.666 32 -69.999c0 -36 -18.667 -61.333 -56 -76v-2c24 -4.66699 42.167 -15 54.5 -31s18.5 -35.333 18.5 -58c0 -35.333 -13.333 -62.833 -40 -82.5s-59.667 -29.5 -99 -29.5
c-42 0 -75.167 10.667 -99.5 32s-36.166 50.666 -35.499 87.999h57c1.33301 -49.333 27.333 -74 78 -74c23.333 0 42 5.83301 56 17.5s21 27.5 21 47.5c0 43.333 -25.333 65 -76 65c-1.33301 0 -11 -1 -29 -3zM419.999 352.003v-48h-478v48h478z" />
    <glyph glyph-name="uni2155.stacked" unicode="&#xe04c;" horiz-adv-x="362" 
d="M213 779l0.000976562 -369h-56v263h-97v36c65.333 0 102.666 23.333 111.999 70h41zM42.001 50l37.0029 196.001h202v-46h-162l-19 -91l1 -1c19.333 14 44.333 21 75 21c36 0 66.167 -11.333 90.5 -34s36.5 -53.334 36.5 -92.001c0 -36 -12.333 -66 -37 -90
s-59.334 -36 -104.001 -36c-36 0 -66.333 9.5 -91 28.5s-37.334 44.5 -38.001 76.5h56c1.33301 -18.667 8.66602 -33.167 21.999 -43.5s30.666 -15.5 51.999 -15.5c52 0 78 26.667 78 80c0 24.667 -7.16699 44.167 -21.5 58.5s-33.833 21.5 -58.5 21.5
c-29.333 0 -54.666 -11.667 -75.999 -35zM420.004 352.001v-48h-478v48h478z" />
    <glyph glyph-name="uni2156.stacked" unicode="&#xe04d;" horiz-adv-x="362" 
d="M103 648l-56 0.00292969c-2 38 8.66699 69.333 32 94s56 37 98 37c36.667 0 67 -9.5 91 -28.5s36 -44.833 36 -77.5c0 -30 -8.33301 -54.833 -25 -74.5s-41 -38.834 -73 -57.501l-26 -14.5c-12.667 -7 -21.667 -12.333 -27 -16s-12 -8.5 -20 -14.5
s-13.833 -11.833 -17.5 -17.5s-6.16699 -11.834 -7.5 -18.501h192v-50h-264c2 29.333 8.83301 54.666 20.5 75.999s23.834 36.833 36.501 46.5s30 20.834 52 33.501c37.333 20.667 62.833 38 76.5 52s20.5 32.333 20.5 55c0 17.333 -5.5 31.666 -16.5 42.999
s-26.833 17 -47.5 17c-26 0 -45.333 -8.16699 -58 -24.5s-18.334 -36.5 -17.001 -60.5zM42 50.0029l37.0029 196.001h202v-46h-162l-19 -91l1 -1c19.333 14 44.333 21 75 21c36 0 66.167 -11.333 90.5 -34s36.5 -53.334 36.5 -92.001c0 -36 -12.333 -66 -37 -90
s-59.334 -36 -104.001 -36c-36 0 -66.333 9.5 -91 28.5s-37.334 44.5 -38.001 76.5h56c1.33301 -18.667 8.66602 -33.167 21.999 -43.5s30.666 -15.5 51.999 -15.5c52 0 78 26.667 78 80c0 24.667 -7.16699 44.167 -21.5 58.5s-33.833 21.5 -58.5 21.5
c-29.333 0 -54.666 -11.667 -75.999 -35zM420.003 352.004v-48h-478v48h478z" />
    <glyph glyph-name="uni2157.stacked" unicode="&#xe04e;" horiz-adv-x="362" 
d="M140 577l-0.000976562 50c5.33301 -0.666992 12.333 -1 21 -1c19.333 0 35.333 4.5 48 13.5s19 22.167 19 39.5c0 36 -20 54 -60 54c-45.333 0 -68.666 -24.333 -69.999 -73h-56c1.33301 36 12.666 64.833 33.999 86.5s51.333 32.5 90 32.5c40 0 70.667 -8.66699 92 -26
s32 -40.666 32 -69.999c0 -36 -18.667 -61.333 -56 -76v-2c24 -4.66699 42.167 -15 54.5 -31s18.5 -35.333 18.5 -58c0 -35.333 -13.333 -62.833 -40 -82.5s-59.667 -29.5 -99 -29.5c-42 0 -75.167 10.667 -99.5 32s-36.166 50.666 -35.499 87.999h57
c1.33301 -49.333 27.333 -74 78 -74c23.333 0 42 5.83301 56 17.5s21 27.5 21 47.5c0 43.333 -25.333 65 -76 65c-1.33301 0 -11 -1 -29 -3zM41.999 50l37.0029 196.001h202v-46h-162l-19 -91l1 -1c19.333 14 44.333 21 75 21c36 0 66.167 -11.333 90.5 -34
s36.5 -53.334 36.5 -92.001c0 -36 -12.333 -66 -37 -90s-59.334 -36 -104.001 -36c-36 0 -66.333 9.5 -91 28.5s-37.334 44.5 -38.001 76.5h56c1.33301 -18.667 8.66602 -33.167 21.999 -43.5s30.666 -15.5 51.999 -15.5c52 0 78 26.667 78 80
c0 24.667 -7.16699 44.167 -21.5 58.5s-33.833 21.5 -58.5 21.5c-29.333 0 -54.666 -11.667 -75.999 -35zM420.002 352.001v-48h-478v48h478z" />
    <glyph glyph-name="uni2158.stacked" unicode="&#xe04f;" horiz-adv-x="362" 
d="M251 779v-239h55v-46h-55v-84h-56v84h-167v45l178 240h45zM82 540h113v150h-2zM42 50l37.0029 196.001h202v-46h-162l-19 -91l1 -1c19.333 14 44.333 21 75 21c36 0 66.167 -11.333 90.5 -34s36.5 -53.334 36.5 -92.001c0 -36 -12.333 -66 -37 -90
s-59.334 -36 -104.001 -36c-36 0 -66.333 9.5 -91 28.5s-37.334 44.5 -38.001 76.5h56c1.33301 -18.667 8.66602 -33.167 21.999 -43.5s30.666 -15.5 51.999 -15.5c52 0 78 26.667 78 80c0 24.667 -7.16699 44.167 -21.5 58.5s-33.833 21.5 -58.5 21.5
c-29.333 0 -54.666 -11.667 -75.999 -35zM420.003 352.001v-48h-478v48h478z" />
    <glyph glyph-name="uni2159.stacked" unicode="&#xe050;" horiz-adv-x="362" 
d="M171 74c-22.667 0 -40.5 -7.33301 -53.5 -22s-19.5 -32.667 -19.5 -54c0 -22 6.5 -40 19.5 -54s30.833 -21 53.5 -21s40.167 7 52.5 21s18.5 31.667 18.5 53c0 22 -6.16699 40.333 -18.5 55s-29.833 22 -52.5 22zM292 158h-56.0029c-6.66699 32 -26.667 48 -60 48
c-17.333 0 -32.166 -4 -44.499 -12s-21.166 -18.667 -26.499 -32s-9.16602 -26.166 -11.499 -38.499s-3.5 -25.5 -3.5 -39.5h2c14.667 24 42.667 36 84 36c40.667 0 72.167 -10.833 94.5 -32.5s33.5 -50.5 33.5 -86.5c0 -32 -10.833 -60.667 -32.5 -86
s-55.834 -38 -102.501 -38c-92.667 0 -139 59 -139 177c0 57.333 11.333 104.666 34 141.999s60.334 56 113.001 56c34 0 61 -8.33301 81 -25s31.333 -39.667 34 -69zM212.997 779l0.000976562 -369h-56v263h-97v36c65.333 0 102.666 23.333 111.999 70h41zM419.998 352v-48
h-478v48h478z" />
    <glyph glyph-name="uni215A.stacked" unicode="&#xe051;" horiz-adv-x="362" 
d="M171 74c-22.667 0 -40.5 -7.33301 -53.5 -22s-19.5 -32.667 -19.5 -54c0 -22 6.5 -40 19.5 -54s30.833 -21 53.5 -21s40.167 7 52.5 21s18.5 31.667 18.5 53c0 22 -6.16699 40.333 -18.5 55s-29.833 22 -52.5 22zM292 158h-56.0029c-6.66699 32 -26.667 48 -60 48
c-17.333 0 -32.166 -4 -44.499 -12s-21.166 -18.667 -26.499 -32s-9.16602 -26.166 -11.499 -38.499s-3.5 -25.5 -3.5 -39.5h2c14.667 24 42.667 36 84 36c40.667 0 72.167 -10.833 94.5 -32.5s33.5 -50.5 33.5 -86.5c0 -32 -10.833 -60.667 -32.5 -86
s-55.834 -38 -102.501 -38c-92.667 0 -139 59 -139 177c0 57.333 11.333 104.666 34 141.999s60.334 56 113.001 56c34 0 61 -8.33301 81 -25s31.333 -39.667 34 -69zM41.9971 577l37.0029 196.001h202v-46h-162l-19 -91l1 -1c19.333 14 44.333 21 75 21
c36 0 66.167 -11.333 90.5 -34s36.5 -53.334 36.5 -92.001c0 -36 -12.333 -66 -37 -90s-59.334 -36 -104.001 -36c-36 0 -66.333 9.5 -91 28.5s-37.334 44.5 -38.001 76.5h56c1.33301 -18.667 8.66602 -33.167 21.999 -43.5s30.666 -15.5 51.999 -15.5c52 0 78 26.667 78 80
c0 24.667 -7.16699 44.167 -21.5 58.5s-33.833 21.5 -58.5 21.5c-29.333 0 -54.666 -11.667 -75.999 -35zM420 352.001v-48h-478v48h478z" />
    <glyph glyph-name="uni215B.stacked" unicode="&#xe052;" horiz-adv-x="362" 
d="M167 -77c22.667 0 40.5 6 53.5 18s19.5 27.667 19.5 47s-6.66699 35.166 -20 47.499s-31 18.5 -53 18.5s-39.833 -6.16699 -53.5 -18.5s-20.5 -28.166 -20.5 -47.499s6.66699 -35 20 -47s31.333 -18 54 -18zM45 158c0 28.667 11.5 51.502 34.5 68.502
s51.167 25.5 84.5 25.5c40.667 0 71.167 -9.16699 91.5 -27.5s30.5 -40.5 30.5 -66.5c0 -16.667 -5.16699 -31.834 -15.5 -45.501s-23.833 -23.834 -40.5 -30.501v-2c48 -12.667 72 -43 72 -91c0 -34.667 -12.667 -62 -38 -82s-57.333 -30 -96 -30
c-40.667 0 -73.667 9.66699 -99 29s-38 47 -38 83c0 22 6.16699 41 18.5 57s29.5 27.333 51.5 34v2c-16.667 6 -30.167 16 -40.5 30s-15.5 29.333 -15.5 46zM107 152.002c0 -16 5.16699 -28.667 15.5 -38s24.833 -14 43.5 -14c18 0 32.167 4.66699 42.5 14s15.5 22 15.5 38
c0 15.333 -5.16699 28.166 -15.5 38.499s-24.5 15.5 -42.5 15.5s-32.333 -5.16699 -43 -15.5s-16 -23.166 -16 -38.499zM213 779.002l0.000976562 -369h-56v263h-97v36c65.333 0 102.666 23.333 111.999 70h41zM420.001 352.002v-48h-478v48h478z" />
    <glyph glyph-name="uni215C.stacked" unicode="&#xe053;" horiz-adv-x="362" 
d="M167 -77c22.667 0 40.5 6 53.5 18s19.5 27.667 19.5 47s-6.66699 35.166 -20 47.499s-31 18.5 -53 18.5s-39.833 -6.16699 -53.5 -18.5s-20.5 -28.166 -20.5 -47.499s6.66699 -35 20 -47s31.333 -18 54 -18zM45 158c0 28.667 11.5 51.502 34.5 68.502
s51.167 25.5 84.5 25.5c40.667 0 71.167 -9.16699 91.5 -27.5s30.5 -40.5 30.5 -66.5c0 -16.667 -5.16699 -31.834 -15.5 -45.501s-23.833 -23.834 -40.5 -30.501v-2c48 -12.667 72 -43 72 -91c0 -34.667 -12.667 -62 -38 -82s-57.333 -30 -96 -30
c-40.667 0 -73.667 9.66699 -99 29s-38 47 -38 83c0 22 6.16699 41 18.5 57s29.5 27.333 51.5 34v2c-16.667 6 -30.167 16 -40.5 30s-15.5 29.333 -15.5 46zM107 152.002c0 -16 5.16699 -28.667 15.5 -38s24.833 -14 43.5 -14c18 0 32.167 4.66699 42.5 14s15.5 22 15.5 38
c0 15.333 -5.16699 28.166 -15.5 38.499s-24.5 15.5 -42.5 15.5s-32.333 -5.16699 -43 -15.5s-16 -23.166 -16 -38.499zM140 577.002l-0.000976562 50c5.33301 -0.666992 12.333 -1 21 -1c19.333 0 35.333 4.5 48 13.5s19 22.167 19 39.5c0 36 -20 54 -60 54
c-45.333 0 -68.666 -24.333 -69.999 -73h-56c1.33301 36 12.666 64.833 33.999 86.5s51.333 32.5 90 32.5c40 0 70.667 -8.66699 92 -26s32 -40.666 32 -69.999c0 -36 -18.667 -61.333 -56 -76v-2c24 -4.66699 42.167 -15 54.5 -31s18.5 -35.333 18.5 -58
c0 -35.333 -13.333 -62.833 -40 -82.5s-59.667 -29.5 -99 -29.5c-42 0 -75.167 10.667 -99.5 32s-36.166 50.666 -35.499 87.999h57c1.33301 -49.333 27.333 -74 78 -74c23.333 0 42 5.83301 56 17.5s21 27.5 21 47.5c0 43.333 -25.333 65 -76 65c-1.33301 0 -11 -1 -29 -3z
M419.999 352.002v-48h-478v48h478z" />
    <glyph glyph-name="uni215D.stacked" unicode="&#xe054;" horiz-adv-x="362" 
d="M167 -77c22.667 0 40.5 6 53.5 18s19.5 27.667 19.5 47s-6.66699 35.166 -20 47.499s-31 18.5 -53 18.5s-39.833 -6.16699 -53.5 -18.5s-20.5 -28.166 -20.5 -47.499s6.66699 -35 20 -47s31.333 -18 54 -18zM45 158c0 28.667 11.5 51.502 34.5 68.502
s51.167 25.5 84.5 25.5c40.667 0 71.167 -9.16699 91.5 -27.5s30.5 -40.5 30.5 -66.5c0 -16.667 -5.16699 -31.834 -15.5 -45.501s-23.833 -23.834 -40.5 -30.501v-2c48 -12.667 72 -43 72 -91c0 -34.667 -12.667 -62 -38 -82s-57.333 -30 -96 -30
c-40.667 0 -73.667 9.66699 -99 29s-38 47 -38 83c0 22 6.16699 41 18.5 57s29.5 27.333 51.5 34v2c-16.667 6 -30.167 16 -40.5 30s-15.5 29.333 -15.5 46zM107 152.002c0 -16 5.16699 -28.667 15.5 -38s24.833 -14 43.5 -14c18 0 32.167 4.66699 42.5 14s15.5 22 15.5 38
c0 15.333 -5.16699 28.166 -15.5 38.499s-24.5 15.5 -42.5 15.5s-32.333 -5.16699 -43 -15.5s-16 -23.166 -16 -38.499zM42 577.002l37.0029 196.001h202v-46h-162l-19 -91l1 -1c19.333 14 44.333 21 75 21c36 0 66.167 -11.333 90.5 -34s36.5 -53.334 36.5 -92.001
c0 -36 -12.333 -66 -37 -90s-59.334 -36 -104.001 -36c-36 0 -66.333 9.5 -91 28.5s-37.334 44.5 -38.001 76.5h56c1.33301 -18.667 8.66602 -33.167 21.999 -43.5s30.666 -15.5 51.999 -15.5c52 0 78 26.667 78 80c0 24.667 -7.16699 44.167 -21.5 58.5
s-33.833 21.5 -58.5 21.5c-29.333 0 -54.666 -11.667 -75.999 -35zM420.003 352.003v-48h-478v48h478z" />
    <glyph glyph-name="uni215E.stacked" unicode="&#xe055;" horiz-adv-x="362" 
d="M167 -77c22.667 0 40.5 6 53.5 18s19.5 27.667 19.5 47s-6.66699 35.166 -20 47.499s-31 18.5 -53 18.5s-39.833 -6.16699 -53.5 -18.5s-20.5 -28.166 -20.5 -47.499s6.66699 -35 20 -47s31.333 -18 54 -18zM45 158c0 28.667 11.5 51.502 34.5 68.502
s51.167 25.5 84.5 25.5c40.667 0 71.167 -9.16699 91.5 -27.5s30.5 -40.5 30.5 -66.5c0 -16.667 -5.16699 -31.834 -15.5 -45.501s-23.833 -23.834 -40.5 -30.501v-2c48 -12.667 72 -43 72 -91c0 -34.667 -12.667 -62 -38 -82s-57.333 -30 -96 -30
c-40.667 0 -73.667 9.66699 -99 29s-38 47 -38 83c0 22 6.16699 41 18.5 57s29.5 27.333 51.5 34v2c-16.667 6 -30.167 16 -40.5 30s-15.5 29.333 -15.5 46zM107 152.002c0 -16 5.16699 -28.667 15.5 -38s24.833 -14 43.5 -14c18 0 32.167 4.66699 42.5 14s15.5 22 15.5 38
c0 15.333 -5.16699 28.166 -15.5 38.499s-24.5 15.5 -42.5 15.5s-32.333 -5.16699 -43 -15.5s-16 -23.166 -16 -38.499zM312 773.002l-0.00292969 -40c-40.667 -36 -75.667 -84.5 -105 -145.5s-45.666 -120.167 -48.999 -177.5h-64
c4.66699 59.333 20.834 116.5 48.501 171.5s61.834 102.167 102.501 141.5h-194v50h261zM419.997 352.002v-48h-478v48h478z" />
    <glyph glyph-name=".null" horiz-adv-x="0" 
 />
    <glyph glyph-name="nonmarkingreturn" 
 />
  </font>
</defs>
</svg>
